<?xml version="1.0" encoding="UTF-8" standalone="no"?>
<!-- Created with Inkscape (http://www.inkscape.org/) -->

<svg
   xmlns:dc="http://purl.org/dc/elements/1.1/"
   xmlns:cc="http://creativecommons.org/ns#"
   xmlns:rdf="http://www.w3.org/1999/02/22-rdf-syntax-ns#"
   xmlns:svg="http://www.w3.org/2000/svg"
   xmlns="http://www.w3.org/2000/svg"
   xmlns:sodipodi="http://sodipodi.sourceforge.net/DTD/sodipodi-0.dtd"
   xmlns:inkscape="http://www.inkscape.org/namespaces/inkscape"
   width="612pt"
   height="792pt"
   id="svg5213"
   version="1.1"
   inkscape:version="0.48.4 r9939"
   sodipodi:docname="bellows.svg">
  <defs
     id="defs5215" />
  <sodipodi:namedview
     inkscape:document-units="in"
     pagecolor="#ffffff"
     bordercolor="#666666"
     borderopacity="1.0"
     inkscape:pageopacity="0.0"
     inkscape:pageshadow="2"
     inkscape:zoom="0.72"
     inkscape:cx="-33.591727"
     inkscape:cy="535.44803"
     inkscape:current-layer="layer1"
     id="namedview5217"
     showgrid="true"
     units="in"
     inkscape:snap-bbox="true"
     inkscape:window-width="1920"
     inkscape:window-height="1057"
     inkscape:window-x="-8"
     inkscape:window-y="-8"
     inkscape:window-maximized="1">
    <inkscape:grid
       type="xygrid"
       id="grid5222"
       empspacing="4"
       visible="true"
       enabled="true"
       snapvisiblegridlinesonly="true"
       units="in"
       spacingx="0.25in"
       spacingy="0.25in" />
  </sodipodi:namedview>
  <metadata
     id="metadata5219">
    <rdf:RDF>
      <cc:Work
         rdf:about="">
        <dc:format>image/svg+xml</dc:format>
        <dc:type
           rdf:resource="http://purl.org/dc/dcmitype/StillImage" />
        <dc:title />
      </cc:Work>
    </rdf:RDF>
  </metadata>
  <g
     inkscape:groupmode="layer"
     id="layer2"
     inkscape:label="Cut"
     style="display:inline">
    <rect
       style="fill:#00ffff;fill-opacity:1;fill-rule:evenodd;stroke:none;display:inline"
       id="rect5858"
       width="675"
       height="945"
       x="45"
       y="22.5" />
  </g>
  <g
     inkscape:groupmode="layer"
     id="layer3"
     inkscape:label="Score"
     style="display:inline">
    <path
       id="path5986"
       style="fill:none;stroke:#000000;stroke-width:1px;stroke-linecap:butt;stroke-linejoin:miter;stroke-opacity:1"
       d="m 540,22.5 0,945 m -315,-945 0,945 M 540,22.5 472.5,90 540,157.5 472.5,225 540,292.5 472.5,360 540,427.5 472.5,495 540,562.5 472.5,630 540,697.5 472.5,765 540,832.5 472.5,900 540,967.5 M 225,22.5 292.5,90 225,157.5 292.5,225 225,292.5 292.5,360 225,427.5 292.5,495 225,562.5 292.5,630 225,697.5 292.5,765 225,832.5 292.5,900 225,967.5 m -180,-810 675,0 M 45,225 l 675,0 m -675,67.5 675,0 M 45,900 l 675,0 m -675,-67.5 675,0 M 45,765 l 675,0 m -675,-67.5 675,0 M 45,630 l 675,0 m -675,-67.5 675,0 M 45,495 l 675,0 m -675,-67.5 675,0 M 45,360 720,360 M 45,90 720,90" />
  </g>
  <g
     inkscape:groupmode="layer"
     id="layer1"
     inkscape:label="Size">
    <path
       id="path3776"
       style="font-size:144px;font-style:normal;font-weight:normal;line-height:125%;letter-spacing:0px;word-spacing:0px;fill:#000000;fill-opacity:1;stroke:none;font-family:Sans"
       d="m -5.34375,464.41406 -3.51563,-19.61719 0,-16.875 14.41407,0 0,16.875 -3.16407,19.61719 z m 23.27344,0 -3.44532,-19.61719 0,-16.875 14.41407,0 0,16.875 -3.375,19.61719 z M -89.64844,504 l 13.28906,-1.125 c 0.98436,6.46877 3.26951,11.33205 6.85547,14.58984 3.58591,3.25783 7.91013,4.88673 12.97266,4.88672 6.0937,1e-5 11.24995,-2.29686 15.46875,-6.89062 4.21869,-4.59373 6.32806,-10.68748 6.32812,-18.28125 -6e-5,-7.21871 -2.0274,-12.91402 -6.08203,-17.08594 -4.05473,-4.17182 -9.36332,-6.25776 -15.92578,-6.25781 -4.07816,5e-5 -7.75784,0.92583 -11.03906,2.77734 -3.28127,1.85162 -5.8594,4.25396 -7.73438,7.20703 l -11.88281,-1.54687 9.98438,-52.94532 51.25781,0 0,12.09375 -41.13281,0 -5.55469,27.70313 c 6.18747,-4.31243 12.67965,-6.46868 19.47656,-6.46875 8.99995,7e-5 16.59369,3.11725 22.78125,9.35156 6.18743,6.23443 9.28118,14.25005 9.28125,24.04688 -7e-5,9.32815 -2.71882,17.39064 -8.15625,24.1875 -6.60943,8.34375 -15.63286,12.51562 -27.07031,12.51562 -9.37503,0 -17.02737,-2.625 -22.95703,-7.875 -5.9297,-5.24999 -9.31641,-12.21092 -10.16016,-20.88281 z m -32.83594,27 0,-14.41406 14.41407,0 0,14.41406 z m -87.25781,-50.83594 c 0,-12.18743 1.2539,-21.99602 3.76172,-29.42578 2.5078,-7.4296 6.23436,-13.16006 11.17969,-17.19141 4.94529,-4.03114 11.16794,-6.04677 18.66797,-6.04687 5.5312,10e-5 10.38276,1.11338 14.55468,3.33984 4.17182,2.22666 7.61713,5.4376 10.33594,9.63282 2.71869,4.1954 4.8515,9.30476 6.39844,15.32812 1.5468,6.02351 2.32024,14.14459 2.32031,24.36328 -7e-5,12.09379 -1.24226,21.8555 -3.72656,29.28516 -2.48444,7.4297 -6.19928,13.17188 -11.14453,17.22656 -4.94537,4.05469 -11.19145,6.08203 -18.73828,6.08203 -9.93753,0 -17.74221,-3.5625 -23.41407,-10.6875 -6.79688,-8.5781 -10.19531,-22.54684 -10.19531,-41.90625 z m 13.00781,0 c -1e-5,16.92191 1.98045,28.18362 5.94141,33.78516 3.96091,5.60157 8.84762,8.40235 14.66016,8.40234 5.81245,1e-5 10.69917,-2.81249 14.66015,-8.4375 3.96088,-5.62497 5.94135,-16.87496 5.94141,-33.75 -6e-5,-16.96868 -1.98053,-28.24211 -5.94141,-33.82031 -3.96098,-5.57803 -8.89457,-8.36709 -14.80078,-8.36719 -5.81253,10e-5 -10.45315,2.46103 -13.92187,7.38281 -4.3594,6.28133 -6.53908,17.88289 -6.53907,34.80469 z M -242.22656,531 l -12.65625,0 0,-80.64844 c -3.04692,2.90633 -7.04301,5.81258 -11.98828,8.71875 -4.94534,2.90632 -9.38674,5.08601 -13.32422,6.53906 l 0,-12.23437 c 7.0781,-3.32804 13.26559,-7.35929 18.5625,-12.09375 5.29683,-4.73428 9.04683,-9.32803 11.25,-13.78125 l 8.15625,0 z m -61.66407,-60.60938 -68.0625,0 0,-11.8125 68.0625,0 z m 0,31.28907 -68.0625,0 0,-11.8125 68.0625,0 z M -472.5,531 l 0,-103.07813 13.64062,0 0,42.32813 53.57813,0 0,-42.32813 13.64062,0 0,103.07813 -13.64062,0 0,-48.58594 -53.57813,0 0,48.58594 z"
       inkscape:connector-curvature="0" />
  </g>
</svg>
