<?xml version="1.0" encoding="UTF-8" standalone="no"?>
<!-- Created with Inkscape (http://www.inkscape.org/) -->

<svg
   xmlns:dc="http://purl.org/dc/elements/1.1/"
   xmlns:cc="http://creativecommons.org/ns#"
   xmlns:rdf="http://www.w3.org/1999/02/22-rdf-syntax-ns#"
   xmlns:svg="http://www.w3.org/2000/svg"
   xmlns="http://www.w3.org/2000/svg"
   xmlns:sodipodi="http://sodipodi.sourceforge.net/DTD/sodipodi-0.dtd"
   xmlns:inkscape="http://www.inkscape.org/namespaces/inkscape"
   width="765"
   height="990"
   id="svg3776"
   version="1.1"
   inkscape:version="0.48.4 r9939"
   sodipodi:docname="x-carriage-motor.svg">
  <defs
     id="defs3778" />
  <sodipodi:namedview
     id="base"
     pagecolor="#ffffff"
     bordercolor="#666666"
     borderopacity="1.0"
     inkscape:pageopacity="0.0"
     inkscape:pageshadow="2"
     inkscape:zoom="0.7"
     inkscape:cx="164.33763"
     inkscape:cy="530.93829"
     inkscape:document-units="mm"
     inkscape:current-layer="layer1"
     showgrid="true"
     inkscape:snap-bbox="true"
     inkscape:window-width="1920"
     inkscape:window-height="1057"
     inkscape:window-x="-8"
     inkscape:window-y="-8"
     inkscape:window-maximized="1"
     units="mm">
    <inkscape:grid
       type="xygrid"
       id="grid3784"
       empspacing="2"
       visible="true"
       enabled="true"
       snapvisiblegridlinesonly="true"
       units="mm"
       spacingx="0.5mm"
       spacingy="0.5mm"
       dotted="false"
       empcolor="#0000ff"
       empopacity="0.1254902" />
  </sodipodi:namedview>
  <metadata
     id="metadata3781">
    <rdf:RDF>
      <cc:Work
         rdf:about="">
        <dc:format>image/svg+xml</dc:format>
        <dc:type
           rdf:resource="http://purl.org/dc/dcmitype/StillImage" />
        <dc:title />
      </cc:Work>
    </rdf:RDF>
  </metadata>
  <g
     inkscape:label="Layer 1"
     inkscape:groupmode="layer"
     id="layer1"
     style="display:inline"
     transform="translate(0,-62.362183)">
    <path
       id="rect3815"
       style="fill:#00ffff;fill-opacity:1;fill-rule:evenodd;stroke:#000000;stroke-opacity:1;display:inline"
       d="m 322.4375,861.01843 106.3125,0 0,42.53125 -106.3125,0 0,-42.53125 z m 201.96875,-7.09375 127.5625,0 0,56.6875 -127.5625,0 0,-56.6875 z m -425.1875,0 127.5625,0 0,56.6875 -127.5625,0 0,-56.6875 z M 287,531.48718 l 0,88.59375 -187.78125,0 0,74.40625 187.78125,0 124.03125,0 53.125,0 0.0312,0 10.625,0 177.15625,0 0,-74.40625 -177.15625,0 -10.625,0 -0.0312,0 0,-88.59375 -177.15625,0 z m 35.4375,-124 106.3125,0 0,42.5 -106.3125,0 0,-42.5 z M 85.03125,102.76843 l 0,70.84375 -70.84375,0 0,219.6875 70.84375,0 0,531.5 0,70.875 581.125,0 0,-70.875 0,-531.5 70.84375,0 0,-219.6875 -70.84375,0 0,-70.84375 -581.125,0 z" />
  </g>
  <g
     inkscape:groupmode="layer"
     id="layer2"
     inkscape:label="score"
     style="display:inline"
     transform="translate(0,-62.362183)">
    <path
       id="path3788"
       style="fill:none;stroke:#000000;stroke-width:0.99921262;stroke-miterlimit:4;stroke-opacity:1;stroke-dasharray:3.99685039, 3.99685039;stroke-dashoffset:0;display:inline"
       d="m 85.025098,173.62817 0,219.68504 581.102362,0 0,-219.68504 m -581.08809,751.17495 581.10236,0 m -581.10236,-751.1811 581.10236,0"
       inkscape:connector-curvature="0" />
  </g>
  <g
     inkscape:groupmode="layer"
     id="layer3"
     inkscape:label="Size"
     style="display:inline"
     transform="translate(0,-62.362183)" />
</svg>
