<?xml version="1.0" encoding="UTF-8" standalone="no"?>
<!-- Created with Inkscape (http://www.inkscape.org/) -->

<svg
   xmlns:dc="http://purl.org/dc/elements/1.1/"
   xmlns:cc="http://creativecommons.org/ns#"
   xmlns:rdf="http://www.w3.org/1999/02/22-rdf-syntax-ns#"
   xmlns:svg="http://www.w3.org/2000/svg"
   xmlns="http://www.w3.org/2000/svg"
   xmlns:sodipodi="http://sodipodi.sourceforge.net/DTD/sodipodi-0.dtd"
   xmlns:inkscape="http://www.inkscape.org/namespaces/inkscape"
   width="765"
   height="990"
   id="svg3776"
   version="1.1"
   inkscape:version="0.48.4 r9939"
   sodipodi:docname="x-carriage-z.svg">
  <defs
     id="defs3778" />
  <sodipodi:namedview
     id="base"
     pagecolor="#ffffff"
     bordercolor="#666666"
     borderopacity="1.0"
     inkscape:pageopacity="0.0"
     inkscape:pageshadow="2"
     inkscape:zoom="0.7"
     inkscape:cx="-18.103158"
     inkscape:cy="532.43187"
     inkscape:document-units="mm"
     inkscape:current-layer="layer1"
     showgrid="true"
     inkscape:snap-bbox="true"
     inkscape:window-width="1920"
     inkscape:window-height="1057"
     inkscape:window-x="-8"
     inkscape:window-y="-8"
     inkscape:window-maximized="1"
     units="mm">
    <inkscape:grid
       type="xygrid"
       id="grid3784"
       empspacing="2"
       visible="true"
       enabled="true"
       snapvisiblegridlinesonly="true"
       units="mm"
       spacingx="0.5mm"
       spacingy="0.5mm"
       dotted="false"
       empcolor="#0000ff"
       empopacity="0.1254902" />
  </sodipodi:namedview>
  <metadata
     id="metadata3781">
    <rdf:RDF>
      <cc:Work
         rdf:about="">
        <dc:format>image/svg+xml</dc:format>
        <dc:type
           rdf:resource="http://purl.org/dc/dcmitype/StillImage" />
        <dc:title />
      </cc:Work>
    </rdf:RDF>
  </metadata>
  <g
     inkscape:label="Layer 1"
     inkscape:groupmode="layer"
     id="layer1"
     style="display:inline"
     transform="translate(0,-62.362183)">
    <path
       style="fill:#00ffff;fill-opacity:1;fill-rule:evenodd;stroke:#000000;display:inline;stroke-opacity:1"
       d="M 85.03125 12.0625 L 85.03125 741.96875 L 49.59375 741.96875 L 14.1875 741.96875 L 14.1875 961.65625 L 49.59375 961.65625 L 134.65625 961.65625 L 609.4375 961.65625 L 701.5625 961.65625 L 737 961.65625 L 737 741.96875 L 701.5625 741.96875 L 666.15625 741.96875 L 666.15625 12.0625 L 85.03125 12.0625 z M 322.4375 224.65625 L 428.75 224.65625 L 428.75 267.15625 L 322.4375 267.15625 L 322.4375 224.65625 z M 99.21875 437.25 L 226.78125 437.25 L 226.78125 511.65625 L 99.21875 511.65625 L 99.21875 437.25 z M 524.40625 437.25 L 651.96875 437.25 L 651.96875 511.65625 L 524.40625 511.65625 L 524.40625 437.25 z M 99.21875 671.09375 L 226.78125 671.09375 L 226.78125 727.78125 L 99.21875 727.78125 L 99.21875 671.09375 z M 524.40625 671.09375 L 651.96875 671.09375 L 651.96875 727.78125 L 524.40625 727.78125 L 524.40625 671.09375 z M 322.4375 678.1875 L 428.75 678.1875 L 428.75 720.71875 L 322.4375 720.71875 L 322.4375 678.1875 z "
       transform="translate(0,62.362183)"
       id="path3991" />
  </g>
  <g
     inkscape:groupmode="layer"
     id="layer2"
     inkscape:label="score"
     style="display:inline"
     transform="translate(0,-62.362183)">
    <path
       style="fill:none;stroke:#000000;stroke-width:0.9992126;stroke-linecap:butt;stroke-linejoin:miter;stroke-opacity:1;stroke-miterlimit:4;stroke-dasharray:3.99685039,3.99685039;stroke-dashoffset:0"
       d="m 666.14173,961.65354 0,-219.68504 -581.10236,0 0,219.68504"
       id="path3819"
       inkscape:connector-curvature="0"
       transform="translate(0,62.362183)" />
  </g>
  <g
     inkscape:groupmode="layer"
     id="layer3"
     inkscape:label="Size"
     style="display:inline"
     transform="translate(0,-62.362183)" />
</svg>
