<?xml version="1.0" encoding="UTF-8" standalone="no"?>
<!-- Created with Inkscape (http://www.inkscape.org/) -->

<svg
   xmlns:dc="http://purl.org/dc/elements/1.1/"
   xmlns:cc="http://creativecommons.org/ns#"
   xmlns:rdf="http://www.w3.org/1999/02/22-rdf-syntax-ns#"
   xmlns:svg="http://www.w3.org/2000/svg"
   xmlns="http://www.w3.org/2000/svg"
   xmlns:sodipodi="http://sodipodi.sourceforge.net/DTD/sodipodi-0.dtd"
   xmlns:inkscape="http://www.inkscape.org/namespaces/inkscape"
   width="765"
   height="990"
   id="svg3080"
   version="1.1"
   inkscape:version="0.48.4 r9939"
   sodipodi:docname="y-carriage-side.svg">
  <defs
     id="defs3082" />
  <sodipodi:namedview
     id="base"
     pagecolor="#ffffff"
     bordercolor="#666666"
     borderopacity="1.0"
     inkscape:pageopacity="0.0"
     inkscape:pageshadow="2"
     inkscape:zoom="0.7"
     inkscape:cx="394.73658"
     inkscape:cy="531.03387"
     inkscape:document-units="mm"
     inkscape:current-layer="layer3"
     showgrid="true"
     units="mm"
     inkscape:window-width="1920"
     inkscape:window-height="1057"
     inkscape:window-x="-8"
     inkscape:window-y="-8"
     inkscape:window-maximized="1"
     inkscape:snap-bbox="true"
     inkscape:snap-bbox-midpoints="false">
    <inkscape:grid
       type="xygrid"
       id="grid3088"
       empspacing="5"
       visible="true"
       enabled="true"
       snapvisiblegridlinesonly="true"
       units="mm"
       spacingx="0.5mm"
       spacingy="0.5mm" />
  </sodipodi:namedview>
  <metadata
     id="metadata3085">
    <rdf:RDF>
      <cc:Work
         rdf:about="">
        <dc:format>image/svg+xml</dc:format>
        <dc:type
           rdf:resource="http://purl.org/dc/dcmitype/StillImage" />
        <dc:title />
      </cc:Work>
    </rdf:RDF>
  </metadata>
  <g
     inkscape:label="Layer 1"
     inkscape:groupmode="layer"
     id="layer1"
     transform="translate(0,-62.362185)"
     style="display:inline">
    <path
       id="path4674"
       style="fill:#00ffff;stroke:#000000;stroke-opacity:1"
       d="m 662.59914,157.67715 -315.34375,0 0,60.25 -70.875,0 0,-5.3125 0,-30.125 0,-3.5625 0,-21.25 -141.75,0 0,21.25 0,3.5625 0,30.125 0,5.3125 -88.562499,0 -10.625,0 0,322.4375 5.3125,0 10.625,0 308.249999,0 5.34375,0 297.625,0 0,-315.375 0,-7.0625 0,-60.25 z m -373.81961,340.16117 0,42.51969 m -166.53544,-42.51969 0,42.51969 m 162.98005,-201.96211 0,106.28125 -177.15625,0 0,-106.28125 z m -177.15328,53.14321 -72.637789,0"
       inkscape:connector-curvature="0" />
  </g>
  <g
     inkscape:groupmode="layer"
     id="layer2"
     inkscape:label="score"
     style="display:inline"
     transform="translate(0,-62.362183)">
    <path
       transform="translate(0,-2e-6)"
       id="path5594"
       style="display:inline;fill:none;stroke:#000000;stroke-opacity:1;stroke-width:1;stroke-miterlimit:4;stroke-dasharray:4,4;stroke-dashoffset:0"
       d="m 662.59842,497.83832 -627.165349,0 m 0,-212.59842 627.165349,0 m 0,-42.51969 -627.165349,0"
       inkscape:connector-curvature="0" />
  </g>
  <g
     inkscape:groupmode="layer"
     id="layer3"
     inkscape:label="Size">
    <path
       id="path3006"
       style="font-size:144px;font-style:normal;font-weight:normal;line-height:125%;letter-spacing:0px;word-spacing:0px;fill:#000000;fill-opacity:1;stroke:none;font-family:Sans"
       d="m 585.83656,549.60901 -3.51563,-19.6172 0,-16.875 14.41406,0 0,16.875 -3.16406,19.6172 z m 23.27343,0 -3.44531,-19.6172 0,-16.875 14.41406,0 0,16.875 -3.375,19.6172 z m -106.73437,-22.99219 0,-12.16406 66.72656,0 0,9.84375 c -6.56257,6.98446 -13.06647,16.2657 -19.51172,27.84375 -6.44536,11.57818 -11.42582,23.48442 -14.9414,35.71875 -2.53129,8.62502 -4.14848,18.07032 -4.85157,28.33594 l -13.00781,0 c 0.1406,-8.10937 1.73435,-17.90623 4.78125,-29.39063 3.04685,-11.48433 7.41794,-22.55854 13.11328,-33.22265 5.69527,-10.66399 11.75386,-19.65226 18.17578,-26.96485 z m -79.10156,65.74219 12.16406,-1.125 c 1.03123,5.71876 2.99997,9.8672 5.90625,12.4453 2.90622,2.57814 6.63278,3.8672 11.17969,3.8672 3.89058,0 7.30073,-0.89062 10.23046,-2.67188 2.92964,-1.78124 5.33198,-4.16013 7.20704,-7.13671 1.87494,-2.97654 3.44525,-6.99608 4.71093,-12.0586 1.26557,-5.06246 1.89838,-10.21871 1.89844,-15.46875 -6e-5,-0.56245 -0.0235,-1.4062 -0.0703,-2.53125 -2.53131,4.0313 -5.98834,7.30083 -10.3711,9.8086 -4.38285,2.50784 -9.12894,3.76175 -14.23828,3.76171 -8.53127,4e-5 -15.75002,-3.09371 -21.65625,-9.28125 -5.90626,-6.18745 -8.85938,-14.3437 -8.85937,-24.46875 -10e-6,-10.45304 3.08202,-18.8671 9.24609,-25.24219 6.16404,-6.3749 13.88669,-9.5624 23.16797,-9.5625 6.70308,10e-5 12.83198,1.80479 18.38672,5.41406 5.55462,3.60947 9.77337,8.754 12.65625,15.4336 2.88274,6.67976 4.32414,16.34772 4.32422,29.0039 -8e-5,13.17192 -1.42976,23.66019 -4.28906,31.46485 -2.85945,7.8047 -7.11335,13.7461 -12.76172,17.82421 -5.64849,4.07813 -12.26958,6.11719 -19.86328,6.11719 -8.06253,0 -14.64846,-2.23828 -19.75782,-6.71484 -5.10938,-4.47656 -8.17969,-10.76952 -9.21093,-18.87891 z m 51.82031,-45.49219 c -6e-5,-7.26554 -1.93365,-13.03116 -5.80078,-17.29687 -3.86724,-4.26554 -8.51958,-6.39835 -13.95703,-6.39844 -5.62504,9e-5 -10.52347,2.29696 -14.69532,6.89062 -4.17189,4.59384 -6.25783,10.54696 -6.25781,17.85938 -2e-5,6.56255 1.98045,11.89459 5.94141,15.99609 3.96091,4.10162 8.84762,6.15239 14.66015,6.15234 5.85933,5e-5 10.67573,-2.05073 14.44922,-6.15234 3.77338,-4.1015 5.6601,-9.78509 5.66016,-17.05079 z m -86.55469,69.32813 0,-14.41406 14.41406,0 0,14.41406 z m -21.58594,-77.83594 -12.58593,0.98437 c -1.12506,-4.96866 -2.71881,-8.57803 -4.78125,-10.82812 -3.42193,-3.60929 -7.64068,-5.41397 -12.65625,-5.41406 -4.03129,9e-5 -7.57035,1.12509 -10.61719,3.375 -3.9844,2.90634 -7.12503,7.14852 -9.42188,12.72656 -2.29689,5.5782 -3.4922,13.5235 -3.58593,23.83594 3.04685,-4.64057 6.77341,-8.08588 11.17968,-10.33594 4.40622,-2.24993 9.0234,-3.37493 13.85157,-3.375 8.43744,7e-5 15.62103,3.10553 21.55078,9.31641 5.92961,6.21099 8.89445,14.23832 8.89453,24.08203 -8e-5,6.46878 -1.39461,12.48049 -4.1836,18.03516 -2.78912,5.55469 -6.62115,9.80859 -11.49609,12.76171 -4.87505,2.95313 -10.4063,4.42969 -16.59375,4.42969 -10.54691,0 -19.14846,-3.8789 -25.80469,-11.63672 -6.65626,-7.75779 -9.98438,-20.54294 -9.98437,-38.35547 -1e-5,-19.9218 3.67968,-34.40616 11.03906,-43.45312 6.42185,-7.8749 15.07028,-11.8124 25.94531,-11.8125 8.10933,1e-4 14.75385,2.27354 19.9336,6.82031 5.17962,4.54697 8.28508,10.82821 9.3164,18.84375 z m -51.67968,44.4375 c -2e-5,4.35941 0.92576,8.53128 2.77734,12.51562 1.85154,3.98439 4.44138,7.01955 7.76953,9.10547 3.32809,2.08595 6.82028,3.12891 10.47656,3.12891 5.34371,0 9.93745,-2.15625 13.78125,-6.46875 3.84369,-4.31249 5.76557,-10.17185 5.76563,-17.57813 -6e-5,-7.12495 -1.8985,-12.73824 -5.69531,-16.83984 -3.79693,-4.10151 -8.57818,-6.15229 -14.34375,-6.15234 -5.71879,5e-5 -10.57035,2.05083 -14.55469,6.15234 -3.9844,4.10161 -5.97658,9.48051 -5.97656,16.13672 z m -27.98438,-27.21094 -68.0625,0 0,-11.8125 68.0625,0 z m 0,31.28907 -68.0625,0 0,-11.8125 68.0625,0 z m -182.8125,29.32031 -27.351562,-103.07813 13.992187,0 15.679685,67.57032 c 1.68747,7.07815 3.14059,14.10939 4.35938,21.09375 2.62496,-11.0156 4.17183,-17.36716 4.64062,-19.05469 l 19.61719,-69.60938 16.45313,0 14.76562,52.17188 c 3.70303,12.93754 6.3749,25.10159 8.01563,36.49219 1.31239,-6.51561 3.02333,-13.99216 5.13281,-22.42969 l 16.17187,-66.23438 13.71094,0 -28.26562,103.07813 -13.14844,0 -21.72656,-78.53906 c -1.8282,-6.56242 -2.90632,-10.59366 -3.23438,-12.09375 -1.07819,4.73446 -2.086,8.7657 -3.02344,12.09375 l -21.86718,78.53906 z" />
  </g>
</svg>
