<?xml version="1.0" encoding="UTF-8" standalone="no"?>
<!-- Created with Inkscape (http://www.inkscape.org/) -->

<svg
   xmlns:dc="http://purl.org/dc/elements/1.1/"
   xmlns:cc="http://creativecommons.org/ns#"
   xmlns:rdf="http://www.w3.org/1999/02/22-rdf-syntax-ns#"
   xmlns:svg="http://www.w3.org/2000/svg"
   xmlns="http://www.w3.org/2000/svg"
   xmlns:sodipodi="http://sodipodi.sourceforge.net/DTD/sodipodi-0.dtd"
   xmlns:inkscape="http://www.inkscape.org/namespaces/inkscape"
   width="990"
   height="765"
   id="svg4807"
   version="1.1"
   inkscape:version="0.48.4 r9939"
   sodipodi:docname="y-carriage-corrugation.svg">
  <defs
     id="defs4809" />
  <sodipodi:namedview
     id="base"
     pagecolor="#ffffff"
     bordercolor="#666666"
     borderopacity="1.0"
     inkscape:pageopacity="0.0"
     inkscape:pageshadow="2"
     inkscape:zoom="0.98994949"
     inkscape:cx="466.90756"
     inkscape:cy="360.83194"
     inkscape:document-units="mm"
     inkscape:current-layer="layer1"
     showgrid="true"
     inkscape:snap-bbox="true"
     inkscape:window-width="1920"
     inkscape:window-height="1057"
     inkscape:window-x="-8"
     inkscape:window-y="-8"
     inkscape:window-maximized="1"
     units="mm">
    <inkscape:grid
       type="xygrid"
       id="grid4815"
       empspacing="5"
       visible="true"
       enabled="true"
       snapvisiblegridlinesonly="true"
       units="mm"
       spacingx="0.5mm"
       spacingy="0.5mm" />
  </sodipodi:namedview>
  <metadata
     id="metadata4812">
    <rdf:RDF>
      <cc:Work
         rdf:about="">
        <dc:format>image/svg+xml</dc:format>
        <dc:type
           rdf:resource="http://purl.org/dc/dcmitype/StillImage" />
        <dc:title />
      </cc:Work>
    </rdf:RDF>
  </metadata>
  <g
     inkscape:label="Layer 1"
     inkscape:groupmode="layer"
     id="layer1"
     style="display:inline"
     transform="translate(0,-287.36218)">
    <path
       id="path3814"
       style="fill:#00ffff;stroke:#000000;stroke-width:1px;stroke-linecap:butt;stroke-linejoin:miter;stroke-opacity:1"
       d="m 985.52745,599.33487 -540.34375,0 -5.3125,0 -177.15625,0 0,-77.96875 -226.78125,0 0,311.8125 403.9375,0 0,-70.84375 c 181.88542,-0.007 363.77083,-0.0206 545.65625,0 l 0,-163 z m -722.82306,162.98794 0,70.86614"
       inkscape:connector-curvature="0" />
  </g>
  <g
     inkscape:groupmode="layer"
     id="layer3"
     inkscape:label="Score"
     style="display:inline"
     transform="translate(0,-287.36218)">
    <path
       id="path4093"
       style="fill:none;stroke:#000000;stroke-width:0.99921262;stroke-linecap:butt;stroke-linejoin:miter;stroke-miterlimit:4;stroke-opacity:1;stroke-dasharray:1.9984252, 1.9984252;stroke-dashoffset:0;display:inline"
       d="m 262.70439,599.33069 0,162.99212 M 950.10597,599.33069 c 0,54.33071 0,108.66141 0,162.99212 M 879.23982,599.33069 c 0,54.33071 0,108.66141 0,162.99212 M 778.25557,599.33069 c 0,54.33071 0,108.66141 0,162.99212 M 694.98786,599.33069 c 0,54.33071 0,108.66141 0,162.99212 M 611.72014,599.33069 c 0,54.33071 0,108.66141 0,162.99212 M 795.97211,599.33069 c 0,54.33071 0,108.66141 0,162.99212 M 594.00332,599.33094 c 0,54.33071 0,108.66142 0,162.99213 M 510.73981,599.33094 c 0,54.33071 0,108.66141 0,162.99212 M 439.87366,599.33094 c 0,54.33071 0,108.66141 0,162.99212 m -0.004,-2.5e-4 c -134.64567,0 -269.29134,0 -403.93701,0 m 226.77165,-170.07874 -226.77165,0"
       inkscape:connector-curvature="0" />
  </g>
  <g
     inkscape:groupmode="layer"
     id="layer2"
     inkscape:label="Size"
     style="display:inline"
     transform="translate(0,-287.36218)">
    <path
       id="path3914"
       style="font-size:144px;font-style:normal;font-weight:normal;line-height:125%;letter-spacing:0px;word-spacing:0px;fill:#000000;fill-opacity:1;stroke:none;font-family:Sans"
       d="m 854.61521,451.48096 -3.51562,-19.61719 0,-16.875 14.41406,0 0,16.875 -3.16406,19.61719 z m 23.27344,0 -3.44531,-19.61719 0,-16.875 14.41406,0 0,16.875 -3.375,19.61719 z m -107.57813,39.58594 13.28907,-1.125 c 0.98435,6.46877 3.2695,11.33205 6.85546,14.58984 3.58591,3.25783 7.91013,4.88673 12.97266,4.88672 6.09371,1e-5 11.24995,-2.29686 15.46875,-6.89062 4.21869,-4.59373 6.32806,-10.68748 6.32813,-18.28125 -7e-5,-7.21871 -2.02741,-12.91402 -6.08204,-17.08594 -4.05473,-4.17182 -9.36332,-6.25776 -15.92578,-6.25781 -4.07816,5e-5 -7.75784,0.92583 -11.03906,2.77734 -3.28127,1.85162 -5.8594,4.25396 -7.73437,7.20703 l -11.88282,-1.54687 9.98438,-52.94532 51.25781,0 0,12.09375 -41.13281,0 -5.55469,27.70313 c 6.18747,-4.31243 12.67965,-6.46868 19.47656,-6.46875 8.99995,7e-5 16.59369,3.11725 22.78125,9.35156 6.18743,6.23443 9.28118,14.25005 9.28125,24.04688 -7e-5,9.32815 -2.71882,17.39064 -8.15625,24.1875 -6.60943,8.34375 -15.63286,12.51562 -27.07031,12.51562 -9.37503,0 -17.02737,-2.625 -22.95703,-7.875 -5.9297,-5.24999 -9.31641,-12.21092 -10.16016,-20.88281 z m -80.15625,0 13.28907,-1.125 c 0.98435,6.46877 3.2695,11.33205 6.85546,14.58984 3.58591,3.25783 7.91013,4.88673 12.97266,4.88672 6.09371,1e-5 11.24995,-2.29686 15.46875,-6.89062 4.21869,-4.59373 6.32806,-10.68748 6.32813,-18.28125 -7e-5,-7.21871 -2.02741,-12.91402 -6.08204,-17.08594 -4.05473,-4.17182 -9.36332,-6.25776 -15.92578,-6.25781 -4.07816,5e-5 -7.75784,0.92583 -11.03906,2.77734 -3.28127,1.85162 -5.8594,4.25396 -7.73437,7.20703 l -11.88282,-1.54687 9.98438,-52.94532 51.25781,0 0,12.09375 -41.13281,0 -5.55469,27.70313 c 6.18747,-4.31243 12.67965,-6.46868 19.47656,-6.46875 8.99995,7e-5 16.59369,3.11725 22.78125,9.35156 6.18743,6.23443 9.28118,14.25005 9.28125,24.04688 -7e-5,9.32815 -2.71882,17.39064 -8.15625,24.1875 -6.60943,8.34375 -15.63286,12.51562 -27.07031,12.51562 -9.37503,0 -17.02737,-2.625 -22.95703,-7.875 -5.9297,-5.24999 -9.31641,-12.21092 -10.16016,-20.88281 z m -32.83593,27 0,-14.41406 14.41406,0 0,14.41406 z m -87.25782,-50.83594 c 0,-12.18743 1.2539,-21.99602 3.76172,-29.42578 2.5078,-7.4296 6.23436,-13.16006 11.17969,-17.19141 4.94529,-4.03114 11.16794,-6.04677 18.66797,-6.04687 5.5312,1e-4 10.38276,1.11338 14.55469,3.33984 4.17181,2.22666 7.61712,5.4376 10.33593,9.63282 2.71869,4.19539 4.8515,9.30476 6.39844,15.32812 1.5468,6.02351 2.32024,14.14459 2.32031,24.36328 -7e-5,12.09379 -1.24226,21.8555 -3.72656,29.28516 -2.48444,7.4297 -6.19928,13.17188 -11.14453,17.22656 -4.94537,4.05469 -11.19145,6.08203 -18.73828,6.08203 -9.93753,0 -17.74221,-3.5625 -23.41406,-10.6875 -6.79689,-8.57811 -10.19532,-22.54684 -10.19532,-41.90625 z m 13.00782,0 c -2e-5,16.92191 1.98044,28.18362 5.9414,33.78516 3.96091,5.60157 8.84762,8.40235 14.66016,8.40234 5.81245,1e-5 10.69917,-2.81249 14.66015,-8.4375 3.96088,-5.62498 5.94135,-16.87496 5.94141,-33.75 -6e-5,-16.96868 -1.98053,-28.24211 -5.94141,-33.82031 -3.96098,-5.57804 -8.89457,-8.36709 -14.80078,-8.36719 -5.81253,1e-4 -10.45315,2.46103 -13.92187,7.38281 -4.3594,6.28133 -6.53908,17.88288 -6.53906,34.80469 z m -45.49219,50.83594 -12.65625,0 0,-80.64844 c -3.04692,2.90633 -7.043,5.81258 -11.98828,8.71875 -4.94534,2.90632 -9.38674,5.08601 -13.32422,6.53906 l 0,-12.23437 c 7.0781,-3.32804 13.26559,-7.35929 18.5625,-12.09375 5.29683,-4.73428 9.04683,-9.32803 11.25,-13.78125 l 8.15625,0 z m -61.66406,-60.60938 -68.0625,0 0,-11.8125 68.0625,0 z m 0,31.28907 -68.0625,0 0,-11.8125 68.0625,0 z m -182.8125,29.32031 -27.35156,-103.07813 13.99218,0 15.67969,67.57032 c 1.68746,7.07815 3.14059,14.10939 4.35937,21.09375 2.62496,-11.0156 4.17184,-17.36716 4.64063,-19.05469 l 19.61719,-69.60938 16.45312,0 14.76563,52.17188 c 3.70303,12.93754 6.3749,25.10159 8.01562,36.49219 1.3124,-6.51561 3.02334,-13.99216 5.13281,-22.42969 l 16.17188,-66.23438 13.71094,0 -28.26563,103.07813 -13.14844,0 -21.72656,-78.53906 c -1.82819,-6.56242 -2.90632,-10.59366 -3.23437,-12.09375 -1.0782,4.73446 -2.08601,8.7657 -3.02344,12.09375 l -21.86719,78.53906 z"
       inkscape:connector-curvature="0" />
  </g>
</svg>
