<?xml version="1.0" encoding="UTF-8" standalone="no"?>
<!-- Created with Inkscape (http://www.inkscape.org/) -->

<svg
   xmlns:dc="http://purl.org/dc/elements/1.1/"
   xmlns:cc="http://creativecommons.org/ns#"
   xmlns:rdf="http://www.w3.org/1999/02/22-rdf-syntax-ns#"
   xmlns:svg="http://www.w3.org/2000/svg"
   xmlns="http://www.w3.org/2000/svg"
   xmlns:sodipodi="http://sodipodi.sourceforge.net/DTD/sodipodi-0.dtd"
   xmlns:inkscape="http://www.inkscape.org/namespaces/inkscape"
   width="765"
   height="990"
   id="svg3776"
   version="1.1"
   inkscape:version="0.48.4 r9939"
   sodipodi:docname="y-carriage-outer.svg">
  <defs
     id="defs3778" />
  <sodipodi:namedview
     id="base"
     pagecolor="#ffffff"
     bordercolor="#666666"
     borderopacity="1.0"
     inkscape:pageopacity="0.0"
     inkscape:pageshadow="2"
     inkscape:zoom="0.7"
     inkscape:cx="34.2449"
     inkscape:cy="589.19433"
     inkscape:document-units="mm"
     inkscape:current-layer="layer1"
     showgrid="true"
     inkscape:snap-bbox="true"
     inkscape:window-width="1920"
     inkscape:window-height="1057"
     inkscape:window-x="-8"
     inkscape:window-y="-8"
     inkscape:window-maximized="1"
     units="mm">
    <inkscape:grid
       type="xygrid"
       id="grid3784"
       empspacing="2"
       visible="true"
       enabled="true"
       snapvisiblegridlinesonly="true"
       units="mm"
       spacingx="0.5mm"
       spacingy="0.5mm"
       dotted="false"
       empcolor="#0000ff"
       empopacity="0.1254902" />
  </sodipodi:namedview>
  <metadata
     id="metadata3781">
    <rdf:RDF>
      <cc:Work
         rdf:about="">
        <dc:format>image/svg+xml</dc:format>
        <dc:type
           rdf:resource="http://purl.org/dc/dcmitype/StillImage" />
        <dc:title />
      </cc:Work>
    </rdf:RDF>
  </metadata>
  <g
     inkscape:label="Layer 1"
     inkscape:groupmode="layer"
     id="layer1"
     style="display:inline"
     transform="translate(0,-62.362183)">
    <path
       id="path3897"
       style="fill:#00ffff;fill-rule:evenodd;stroke:#000000;display:inline;stroke-opacity:1"
       d="m 81.483022,95.611076 c 0,23.624994 0,47.249994 0,70.874994 -23.614583,0 -47.229167,0 -70.84375,0 0,56.69792 0,113.39583 0,170.09375 23.614583,0 47.229167,0 70.84375,0 0,209.0625 0,418.125 0,627.1875 193.697918,0 387.395828,0 581.093748,0 0,-209.0625 0,-418.125 0,-627.1875 23.625,0 47.25,0 70.875,0 0,-56.69792 0,-113.39583 0,-170.09375 -23.625,0 -47.25,0 -70.875,0 0,-23.625 0,-47.25 0,-70.874994 -193.69792,0 -387.39583,0 -581.093748,0 z m 492.555118,846.860834 70.84375,0 0,-3.53125 0,-49.625 -70.84375,0 0,49.625 0,3.53125 z m -474.8344,0.007 70.875,0 0,-3.53125 0,-49.625 -70.875,0 0,49.625 0,3.53125 z m 0.009,-230.3216 70.875,0 0,-3.53125 0,-49.625 -70.875,0 0,49.625 0,3.53125 z m 474.82554,0 70.84375,0 0,-3.53125 0,-49.625 -70.84375,0 0,49.625 0,3.53125 z m -315.39901,-304.73374 0,262.21875 -17.6875,0 0,49.625 0,3.53125 17.6875,0 0,28.34375 226.78125,0 0,-28.34375 17.71875,0 0,-3.53125 0,-49.625 -17.71875,0 0,-262.21875 -226.78125,0 z"
       inkscape:connector-curvature="0" />
  </g>
  <g
     inkscape:groupmode="layer"
     id="layer2"
     inkscape:label="score"
     style="display:inline"
     transform="translate(0,-62.362183)">
    <path
       id="path4442"
       style="display:inline;fill:none;stroke:#000000;stroke-opacity:1;stroke-width:0.9992126;stroke-miterlimit:4;stroke-dasharray:3.99685039,3.99685039;stroke-dashoffset:0"
       d="m 81.496063,336.61415 0,-170.07874 m 581.102357,170.07874 0,-170.07874 m -581.102357,0 581.102357,0 m -581.102357,170.07874 581.102357,0"
       inkscape:connector-curvature="0"
       sodipodi:nodetypes="cccccccc" />
  </g>
  <g
     inkscape:groupmode="layer"
     id="layer3"
     inkscape:label="Size"
     transform="translate(0,-62.362183)">
    <path
       id="path3966"
       style="font-size:144px;font-style:normal;font-weight:normal;line-height:125%;letter-spacing:0px;word-spacing:0px;fill:#000000;fill-opacity:1;stroke:none;font-family:Sans"
       d="m 608.88853,253.05577 -3.51562,-19.61718 0,-16.875 14.41406,0 0,16.875 -3.16406,19.61718 z m 23.27344,0 -3.44531,-19.61718 0,-16.875 14.41406,0 0,16.875 -3.375,19.61718 z m -107.57812,39.58594 13.28906,-1.125 c 0.98435,6.46877 3.26951,11.33205 6.85547,14.58984 3.58591,3.25783 7.91012,4.88673 12.97265,4.88672 6.09371,1e-5 11.24995,-2.29686 15.46875,-6.89062 4.21869,-4.59373 6.32807,-10.68748 6.32813,-18.28125 -6e-5,-7.21871 -2.0274,-12.91402 -6.08203,-17.08594 -4.05474,-4.17182 -9.36333,-6.25776 -15.92578,-6.25781 -4.07816,5e-5 -7.75785,0.92584 -11.03907,2.77734 -3.28127,1.85162 -5.85939,4.25396 -7.73437,7.20703 l -11.88281,-1.54687 9.98437,-52.94531 51.25781,0 0,12.09375 -41.13281,0 -5.55469,27.70312 c 6.18747,-4.31243 12.67966,-6.46868 19.47657,-6.46875 8.99994,7e-5 16.59369,3.11725 22.78125,9.35156 6.18743,6.23443 9.28117,14.25005 9.28125,24.04688 -8e-5,9.32815 -2.71883,17.39064 -8.15625,24.1875 -6.60944,8.34375 -15.63287,12.51562 -27.07032,12.51562 -9.37503,0 -17.02736,-2.625 -22.95703,-7.875 -5.9297,-5.24999 -9.31641,-12.21092 -10.16015,-20.88281 z m -14.48438,-50.83594 -12.58594,0.98438 c -1.12505,-4.96867 -2.7188,-8.57804 -4.78125,-10.82813 -3.42192,-3.60928 -7.64067,-5.41397 -12.65625,-5.41406 -4.03128,9e-5 -7.57034,1.12509 -10.61718,3.375 -3.98441,2.90634 -7.12503,7.14852 -9.42188,12.72656 -2.29689,5.5782 -3.4922,13.5235 -3.58594,23.83594 3.04686,-4.64057 6.77342,-8.08588 11.17969,-10.33594 4.40622,-2.24993 9.0234,-3.37493 13.85156,-3.375 8.43745,7e-5 15.62104,3.10554 21.55078,9.31641 5.92962,6.21099 8.89446,14.23832 8.89454,24.08203 -8e-5,6.46878 -1.39461,12.48049 -4.1836,18.03516 -2.78913,5.55469 -6.62115,9.8086 -11.49609,12.76172 -4.87505,2.95312 -10.4063,4.42968 -16.59375,4.42968 -10.54691,0 -19.14846,-3.8789 -25.80469,-11.63672 -6.65626,-7.75779 -9.98438,-20.54293 -9.98437,-38.35547 -10e-6,-19.9218 3.67967,-34.40616 11.03906,-43.45312 6.42185,-7.8749 15.07028,-11.8124 25.94531,-11.8125 8.10933,1e-4 14.75385,2.27354 19.93359,6.82031 5.17962,4.54697 8.28509,10.82821 9.31641,18.84375 z m -51.67969,44.4375 c -2e-5,4.35941 0.92576,8.53128 2.77735,12.51563 1.85154,3.98439 4.44138,7.01954 7.76953,9.10547 3.32809,2.08594 6.82027,3.12891 10.47656,3.1289 5.3437,1e-5 9.93745,-2.15624 13.78125,-6.46875 3.84369,-4.31248 5.76557,-10.17185 5.76563,-17.57812 -6e-5,-7.12496 -1.8985,-12.73824 -5.69532,-16.83985 -3.79692,-4.10151 -8.57817,-6.15228 -14.34375,-6.15234 -5.71878,6e-5 -10.57034,2.05083 -14.55468,6.15234 -3.9844,4.10161 -5.97659,9.48051 -5.97657,16.13672 z m -46.82812,33.39844 0,-14.41406 14.41406,0 0,14.41406 z m -85.35938,-23.83594 12.16407,-1.125 c 1.03123,5.71877 2.99997,9.86721 5.90625,12.44532 2.90622,2.57813 6.63278,3.86719 11.17968,3.86718 3.89059,1e-5 7.30074,-0.89061 10.23047,-2.67187 2.92964,-1.78124 5.33198,-4.16014 7.20703,-7.13672 1.87495,-2.97654 3.44526,-6.99607 4.71094,-12.05859 1.26557,-5.06247 1.89838,-10.21871 1.89844,-15.46876 -6e-5,-0.56245 -0.0235,-1.4062 -0.0703,-2.53125 -2.53131,4.0313 -5.98834,7.30083 -10.3711,9.8086 -4.38286,2.50785 -9.12895,3.76175 -14.23828,3.76172 -8.53128,3e-5 -15.75002,-3.09371 -21.65625,-9.28125 -5.90626,-6.18745 -8.85938,-14.34369 -8.85937,-24.46875 -1e-5,-10.45305 3.08202,-18.8671 9.24609,-25.24219 6.16404,-6.3749 13.88669,-9.5624 23.16797,-9.5625 6.70308,1e-4 12.83198,1.80479 18.38672,5.41406 5.55462,3.60947 9.77337,8.754 12.65625,15.4336 2.88274,6.67976 4.32414,16.34772 4.32422,29.0039 -8e-5,13.17192 -1.42976,23.66019 -4.28907,31.46485 -2.85944,7.8047 -7.11334,13.7461 -12.76172,17.82422 -5.64848,4.07812 -12.26957,6.11718 -19.86328,6.11718 -8.06253,0 -14.64846,-2.23828 -19.75781,-6.71484 -5.10939,-4.47655 -8.1797,-10.76952 -9.21094,-18.87891 z m 51.82032,-45.49218 c -6e-5,-7.26555 -1.93366,-13.03117 -5.80079,-17.29688 -3.86723,-4.26553 -8.51957,-6.39834 -13.95703,-6.39844 -5.62503,1e-4 -10.52346,2.29697 -14.69531,6.89063 -4.17189,4.59383 -6.25783,10.54695 -6.25781,17.85937 -2e-5,6.56256 1.98045,11.89459 5.9414,15.9961 3.96091,4.10161 8.84763,6.15239 14.66016,6.15234 5.85933,5e-5 10.67573,-2.05073 14.44922,-6.15234 3.77338,-4.10151 5.6601,-9.7851 5.66016,-17.05078 z m -67.71094,8.71875 -68.0625,0 0,-11.8125 68.0625,0 z m 0,31.28906 -68.0625,0 0,-11.8125 68.0625,0 z m -168.60938,29.32031 0,-103.07812 13.64063,0 0,42.32812 53.57812,0 0,-42.32812 13.64063,0 0,103.07812 -13.64063,0 0,-48.58594 -53.57812,0 0,48.58594 z"
       inkscape:connector-curvature="0" />
  </g>
</svg>
