<?xml version="1.0" encoding="UTF-8" standalone="no"?>
<!-- Created with Inkscape (http://www.inkscape.org/) -->

<svg
   xmlns:dc="http://purl.org/dc/elements/1.1/"
   xmlns:cc="http://creativecommons.org/ns#"
   xmlns:rdf="http://www.w3.org/1999/02/22-rdf-syntax-ns#"
   xmlns:svg="http://www.w3.org/2000/svg"
   xmlns="http://www.w3.org/2000/svg"
   xmlns:sodipodi="http://sodipodi.sourceforge.net/DTD/sodipodi-0.dtd"
   xmlns:inkscape="http://www.inkscape.org/namespaces/inkscape"
   width="744.09448819"
   height="1052.3622047"
   id="svg3776"
   version="1.1"
   inkscape:version="0.48.4 r9939"
   sodipodi:docname="y-carriage-inner.svg">
  <defs
     id="defs3778" />
  <sodipodi:namedview
     id="base"
     pagecolor="#ffffff"
     bordercolor="#666666"
     borderopacity="1.0"
     inkscape:pageopacity="0.0"
     inkscape:pageshadow="2"
     inkscape:zoom="0.7"
     inkscape:cx="241.22114"
     inkscape:cy="539.22613"
     inkscape:document-units="mm"
     inkscape:current-layer="layer3"
     showgrid="true"
     inkscape:snap-bbox="true"
     inkscape:window-width="1920"
     inkscape:window-height="1057"
     inkscape:window-x="-8"
     inkscape:window-y="-8"
     inkscape:window-maximized="1"
     units="mm">
    <inkscape:grid
       type="xygrid"
       id="grid3784"
       empspacing="2"
       visible="true"
       enabled="true"
       snapvisiblegridlinesonly="true"
       units="mm"
       spacingx="0.5mm"
       spacingy="0.5mm"
       dotted="false"
       empcolor="#0000ff"
       empopacity="0.1254902" />
  </sodipodi:namedview>
  <metadata
     id="metadata3781">
    <rdf:RDF>
      <cc:Work
         rdf:about="">
        <dc:format>image/svg+xml</dc:format>
        <dc:type
           rdf:resource="http://purl.org/dc/dcmitype/StillImage" />
        <dc:title />
      </cc:Work>
    </rdf:RDF>
  </metadata>
  <g
     inkscape:label="Layer 1"
     inkscape:groupmode="layer"
     id="layer1"
     style="display:inline">
    <path
       id="path3794"
       style="fill:#00ffff;stroke:#000000;stroke-width:1px;stroke-linecap:butt;stroke-linejoin:miter;stroke-opacity:1"
       d="m 113.40625,861.03156 70.875,0 0,3.53125 0,49.625 -70.875,0 0,-49.625 0,-3.53125 z m 474.8125,0 70.84375,0 0,3.53125 0,49.625 -70.84375,0 0,-49.625 0,-3.53125 z M 95.65625,42.53125 l 0,248.03125 0,49.625 0,318.90625 0,10.625 -35.40625,0 0,170.0625 35.40625,0 0,35.4375 0,106.3125 134.65625,0 329.53125,0 116.90625,0 0,-106.3125 0,-35.4375 35.4375,0 0,-170.0625 -35.4375,0 0,-10.625 0,-318.90625 0,-49.625 0,-248.03125 -116.90625,0 -60.25,0 0,70.84375 -0.0625,0 0,177.125 -226.65625,0 0,-177.125 -0.0312,0 0,-70.84375 -42.53125,0 -134.65625,0 z" />
  </g>
  <g
     inkscape:groupmode="layer"
     id="layer2"
     inkscape:label="score"
     style="display:inline">
    <path
       id="path4442"
       style="fill:none;stroke:#000000;stroke-width:0.99921262;stroke-miterlimit:4;stroke-opacity:1;stroke-dasharray:5.99527559, 5.99527559;stroke-dashoffset:0;display:inline"
       d="m 95.669291,669.68502 0,170.07874 m 581.102359,-170.07874 0,170.07874 m -581.102359,0 581.102359,0 M 95.669291,669.68502 l 581.102359,0"
       inkscape:connector-curvature="0"
       sodipodi:nodetypes="cccccccc" />
  </g>
  <g
     inkscape:groupmode="layer"
     id="layer3"
     inkscape:label="Size"
     style="display:inline">
    <path
       id="path3779"
       style="font-size:144px;font-style:normal;font-weight:normal;line-height:125%;letter-spacing:0px;word-spacing:0px;fill:#000000;fill-opacity:1;stroke:none;font-family:Sans"
       d="m 621.51675,447.8824 -3.1729,-17.70481 0,-15.22993 13.00891,0 0,15.22993 -2.85561,17.70481 z m 21.00463,0 -3.10944,-17.70481 0,-15.22993 13.0089,0 0,15.22993 -3.04599,17.70481 z m -97.0274,35.53653 11.42245,-1.523 c 1.31145,6.47275 3.54305,11.13691 6.69482,13.99251 3.15173,2.85562 6.99094,4.28343 11.51764,4.28342 5.37275,1e-5 9.91,-1.86143 13.61176,-5.58431 3.70168,-3.72286 5.55253,-8.33414 5.55259,-13.83387 -6e-5,-5.24583 -1.71343,-9.57155 -5.1401,-12.97717 -3.42679,-3.40554 -7.78424,-5.10833 -13.07237,-5.10838 -2.15761,5e-5 -4.844,0.4231 -8.05918,1.26916 l 1.26916,-10.02637 c 0.76147,0.0847 1.3749,0.12697 1.84029,0.12691 4.86508,6e-5 9.24369,-1.26911 13.13582,-3.80748 3.89205,-2.53826 5.8381,-6.4515 5.83814,-11.73975 -4e-5,-4.18815 -1.41727,-7.65719 -4.25168,-10.40712 -2.83451,-2.74976 -6.49392,-4.12469 -10.97826,-4.12477 -4.4421,8e-5 -8.14381,1.39615 -11.10516,4.18823 -2.9614,2.79223 -4.86514,6.98046 -5.71123,12.5647 l -11.42245,-2.03066 c 1.39607,-7.6572 4.56897,-13.59053 9.51872,-17.79999 4.9497,-4.2093 11.10513,-6.31399 18.46629,-6.31408 5.07661,9e-5 9.75135,1.08945 14.02424,3.26809 4.27279,2.17881 7.54088,5.15077 9.80427,8.91586 2.26328,3.76526 3.39495,7.76311 3.39501,11.99358 -6e-5,4.01908 -1.07885,7.67849 -3.23636,10.97824 -2.15763,3.29988 -5.35169,5.92281 -9.58217,7.8688 5.49964,1.26922 9.77248,3.90272 12.81853,7.90054 3.04592,3.9979 4.56891,9.0005 4.56898,15.00783 -7e-5,8.12266 -2.96144,15.00785 -8.88413,20.65561 -5.9228,5.64777 -13.41085,8.47165 -22.46416,8.47165 -8.16496,0 -14.9444,-2.43256 -20.33832,-7.29768 -5.39394,-4.86511 -8.47165,-11.16861 -9.23314,-18.9105 z m -35.79036,24.55827 0,-22.27378 -40.35934,0 0,-10.47058 42.45346,-60.28518 9.32834,0 0,60.28518 12.56469,0 0,10.47058 -12.56469,0 0,22.27378 z m 0,-32.74436 0,-41.9458 -29.12726,41.9458 z m -66.25023,32.74436 0,-13.00891 13.0089,0 0,13.00891 z M 364.7019,462.09701 c 0,-10.99935 1.13167,-19.85174 3.39501,-26.5572 2.26333,-6.70533 5.6266,-11.87715 10.08984,-15.51551 4.4632,-3.63817 10.07923,-5.4573 16.84812,-5.45739 4.99199,9e-5 9.37059,1.00484 13.13582,3.01426 3.76512,2.00959 6.87457,4.90751 9.32833,8.69375 2.45366,3.78641 4.37856,8.39769 5.77469,13.83387 1.39601,5.4363 2.09405,12.7657 2.09412,21.98822 -7e-5,10.91483 -1.12116,19.72492 -3.36328,26.43029 -2.24224,6.70542 -5.59494,11.88782 -10.0581,15.54723 -4.46327,3.65942 -10.10045,5.48912 -16.91158,5.48912 -8.96877,0 -16.01261,-3.21521 -21.13154,-9.64562 -6.13429,-7.74188 -9.20143,-20.34886 -9.20143,-37.82102 z m 11.73975,0 c -10e-6,15.27228 1.78738,25.43614 5.36221,30.49161 3.57478,5.0555 7.9851,7.58325 13.23101,7.58324 5.24582,1e-5 9.65616,-2.53832 13.231,-7.61497 3.57476,-5.07663 5.36216,-15.22991 5.36221,-30.45988 -5e-5,-15.31449 -1.78745,-25.48892 -5.36221,-30.52333 -3.57484,-5.03427 -8.02748,-7.55144 -13.35792,-7.55152 -5.2459,8e-5 -9.43413,2.22112 -12.5647,6.6631 -3.93442,5.66899 -5.90161,16.13956 -5.9016,31.41175 z m -41.05738,45.88019 -11.42245,0 0,-72.78642 c -2.74988,2.62301 -6.35641,5.24594 -10.8196,7.86881 -4.46324,2.62299 -8.47167,4.59019 -12.02531,5.9016 l 0,-11.04171 c 6.38809,-3.00361 11.97239,-6.64186 16.75293,-10.91479 4.78047,-4.27275 8.1649,-8.41868 10.1533,-12.43778 l 7.36113,0 z m -55.65273,-54.70086 -61.42742,0 0,-10.66096 61.42742,0 z m 0,28.23884 -61.42742,0 0,-10.66096 61.42742,0 z m -152.17248,26.46202 0,-93.02954 12.31087,0 0,38.20176 48.35506,0 0,-38.20176 12.31087,0 0,93.02954 -12.31087,0 0,-43.84953 -48.35506,0 0,43.84953 z"
       inkscape:connector-curvature="0" />
  </g>
</svg>
