<?xml version="1.0" encoding="UTF-8" standalone="no"?>
<!-- Created with Inkscape (http://www.inkscape.org/) -->

<svg
   xmlns:dc="http://purl.org/dc/elements/1.1/"
   xmlns:cc="http://creativecommons.org/ns#"
   xmlns:rdf="http://www.w3.org/1999/02/22-rdf-syntax-ns#"
   xmlns:svg="http://www.w3.org/2000/svg"
   xmlns="http://www.w3.org/2000/svg"
   xmlns:sodipodi="http://sodipodi.sourceforge.net/DTD/sodipodi-0.dtd"
   xmlns:inkscape="http://www.inkscape.org/namespaces/inkscape"
   width="765"
   height="990"
   id="svg2986"
   version="1.1"
   inkscape:version="0.48.4 r9939"
   sodipodi:docname="y-end.svg">
  <defs
     id="defs2988" />
  <sodipodi:namedview
     id="base"
     pagecolor="#ffffff"
     bordercolor="#666666"
     borderopacity="1.0"
     inkscape:pageopacity="0.0"
     inkscape:pageshadow="2"
     inkscape:zoom="1.4"
     inkscape:cx="216.09986"
     inkscape:cy="630.87919"
     inkscape:document-units="mm"
     inkscape:current-layer="layer3"
     showgrid="true"
     inkscape:snap-bbox="true"
     inkscape:snap-bbox-midpoints="false"
     inkscape:window-width="1920"
     inkscape:window-height="1057"
     inkscape:window-x="-8"
     inkscape:window-y="-8"
     inkscape:window-maximized="1"
     units="mm">
    <inkscape:grid
       type="xygrid"
       id="grid2994"
       empspacing="5"
       visible="true"
       enabled="true"
       snapvisiblegridlinesonly="true"
       units="mm"
       spacingx="1mm"
       spacingy="1mm" />
  </sodipodi:namedview>
  <metadata
     id="metadata2991">
    <rdf:RDF>
      <cc:Work
         rdf:about="">
        <dc:format>image/svg+xml</dc:format>
        <dc:type
           rdf:resource="http://purl.org/dc/dcmitype/StillImage" />
        <dc:title />
      </cc:Work>
    </rdf:RDF>
  </metadata>
  <g
     inkscape:label="Layer 1"
     inkscape:groupmode="layer"
     id="layer1"
     transform="translate(0,-62.362183)">
    <path
       inkscape:connector-curvature="0"
       style="fill:#00ffff;fill-rule:evenodd;stroke:#000000;stroke-opacity:1"
       d="m 205.51575,131.10234 0,159.4375 -17.71875,0 -53.125,0 -10.65625,0 0,318.90625 10.65625,0 53.125,0 212.59375,0 17.71875,0 35.4375,0 10.625,0 159.46875,0 0,-63.78125 -159.46875,0 0,-7.09375 0,-24.78125 0,-223.25 -10.625,0 -53.15625,0 -17.6875,0 0,-159.4375 -177.1875,0 z m 35.4375,230.3125 106.3125,0 0,177.15625 -106.3125,0 0,-177.15625 z"
       id="rect2998" />
  </g>
  <g
     inkscape:groupmode="layer"
     id="layer2"
     inkscape:label="Score">
    <path
       transform="translate(0,-62.362183)"
       inkscape:connector-curvature="0"
       id="path3065"
       style="fill:none;stroke:#000000;stroke-opacity:1;stroke-width:0.9992126;stroke-miterlimit:4;stroke-dasharray:1.9984252,1.9984252;stroke-dashoffset:0"
       d="m 382.68799,251.57823 -177.16535,0 m 0,-10.62993 177.16535,0 m 28.34646,368.50394 0,-318.89764 m -233.85827,0 0,318.89764 m 223.22835,0 0,-318.89764 m -212.59843,0 0,318.89764" />
  </g>
  <g
     inkscape:groupmode="layer"
     id="layer3"
     inkscape:label="Size">
    <path
       id="path3784"
       style="font-size:103.37169647px;font-style:normal;font-weight:normal;line-height:125%;letter-spacing:0px;word-spacing:0px;fill:#000000;fill-opacity:1;stroke:none;font-family:Sans"
       d="m 542.34806,590.99939 -2.52372,-14.08237 0,-12.11387 10.34727,0 0,12.11387 -2.27135,14.08237 z m 16.70705,0 -2.47325,-14.08237 0,-12.11387 10.34727,0 0,12.11387 -2.42278,14.08237 z m -77.22593,28.41712 9.53967,-0.80759 c 0.70663,4.64367 2.34705,8.13481 4.92126,10.47345 2.57418,2.33866 5.67835,3.50798 9.31254,3.50798 4.37442,0 8.07588,-1.64883 11.10438,-4.9465 3.02843,-3.29765 4.54266,-7.6721 4.5427,-13.12336 -4e-5,-5.18201 -1.45539,-9.27044 -4.36604,-12.26529 -2.91073,-2.99478 -6.72155,-4.49219 -11.43246,-4.49223 -2.92755,4e-5 -5.56904,0.66462 -7.92449,1.99374 -2.3555,1.3292 -4.20623,3.05374 -5.5522,5.17363 l -8.53018,-1.11044 7.16737,-38.00726 36.79589,0 0,8.6816 -29.52756,0 -3.98749,19.88694 c 4.44174,-3.09572 9.10221,-4.6436 13.98143,-4.64365 6.46069,5e-5 11.91193,2.23775 16.35373,6.7131 4.4417,4.47544 6.66257,10.22953 6.66262,17.26227 -5e-5,6.6963 -1.95173,12.48403 -5.85503,17.36321 -4.74465,5.98964 -11.22219,8.98446 -19.43267,8.98446 -6.72995,0 -12.22325,-1.88438 -16.47991,-5.65314 -4.25669,-3.76875 -6.68787,-8.76572 -7.29356,-14.99092 z m -57.54088,0 9.53967,-0.80759 c 0.70663,4.64367 2.34705,8.13481 4.92126,10.47345 2.57418,2.33866 5.67836,3.50798 9.31254,3.50798 4.37442,0 8.07588,-1.64883 11.10438,-4.9465 3.02843,-3.29765 4.54266,-7.6721 4.5427,-13.12336 -4e-5,-5.18201 -1.45539,-9.27044 -4.36604,-12.26529 -2.91073,-2.99478 -6.72155,-4.49219 -11.43246,-4.49223 -2.92755,4e-5 -5.56904,0.66462 -7.92449,1.99374 -2.3555,1.3292 -4.20622,3.05374 -5.55219,5.17363 l -8.53019,-1.11044 7.16738,-38.00726 36.79588,0 0,8.6816 -29.52756,0 -3.98748,19.88694 c 4.44173,-3.09572 9.1022,-4.6436 13.98142,-4.64365 6.4607,5e-5 11.91193,2.23775 16.35373,6.7131 4.4417,4.47544 6.66257,10.22953 6.66263,17.26227 -6e-5,6.6963 -1.95173,12.48403 -5.85504,17.36321 -4.74464,5.98964 -11.22219,8.98446 -19.43267,8.98446 -6.72995,0 -12.22325,-1.88438 -16.47991,-5.65314 -4.25669,-3.76875 -6.68787,-8.76572 -7.29356,-14.99092 z m -23.57157,19.3822 0,-10.34727 10.34726,0 0,10.34727 z m -62.6388,-19.3822 9.53967,-0.80759 c 0.70663,4.64367 2.34705,8.13481 4.92126,10.47345 2.57418,2.33866 5.67835,3.50798 9.31254,3.50798 4.37442,0 8.07588,-1.64883 11.10438,-4.9465 3.02842,-3.29765 4.54266,-7.6721 4.5427,-13.12336 -4e-5,-5.18201 -1.45539,-9.27044 -4.36604,-12.26529 -2.91073,-2.99478 -6.72155,-4.49219 -11.43247,-4.49223 -2.92754,4e-5 -5.56903,0.66462 -7.92449,1.99374 -2.35549,1.3292 -4.20622,3.05374 -5.55219,5.17363 l -8.53018,-1.11044 7.16737,-38.00726 36.79589,0 0,8.6816 -29.52756,0 -3.98749,19.88694 c 4.44173,-3.09572 9.10221,-4.6436 13.98143,-4.64365 6.46069,5e-5 11.91193,2.23775 16.35372,6.7131 4.44171,4.47544 6.66258,10.22953 6.66263,17.26227 -5e-5,6.6963 -1.95173,12.48403 -5.85503,17.36321 -4.74465,5.98964 -11.2222,8.98446 -19.43267,8.98446 -6.72995,0 -12.22325,-1.88438 -16.47991,-5.65314 -4.25669,-3.76875 -6.68787,-8.76572 -7.29356,-14.99092 z m -10.04443,-24.12679 -48.85928,0 0,-8.47971 48.85928,0 z m 0,22.46114 -48.85928,0 0,-8.47971 48.85928,0 z m -131.2336,21.04785 -19.63457,-73.99556 10.04442,0 11.25581,48.50595 c 1.21136,5.08112 2.2545,10.12856 3.12941,15.14234 1.88436,-7.90765 2.99479,-12.46717 3.33132,-13.67858 l 14.08237,-49.96971 11.81103,0 10.59963,37.45205 c 2.65826,9.28732 4.57628,18.0194 5.75409,26.19624 0.94212,-4.67728 2.17033,-10.0444 3.68464,-16.10135 l 11.60912,-47.54694 9.84252,0 -20.29073,73.99556 -9.43872,0 -15.59661,-56.37998 c -1.31239,-4.71089 -2.08633,-7.60475 -2.32183,-8.6816 -0.77399,3.39867 -1.49745,6.29254 -2.1704,8.6816 l -15.69756,56.37998 z" />
  </g>
</svg>
