<?xml version="1.0" encoding="UTF-8" standalone="no"?>
<!-- Created with Inkscape (http://www.inkscape.org/) -->

<svg
   xmlns:dc="http://purl.org/dc/elements/1.1/"
   xmlns:cc="http://creativecommons.org/ns#"
   xmlns:rdf="http://www.w3.org/1999/02/22-rdf-syntax-ns#"
   xmlns:svg="http://www.w3.org/2000/svg"
   xmlns="http://www.w3.org/2000/svg"
   xmlns:sodipodi="http://sodipodi.sourceforge.net/DTD/sodipodi-0.dtd"
   xmlns:inkscape="http://www.inkscape.org/namespaces/inkscape"
   width="765"
   height="990"
   id="svg3080"
   version="1.1"
   inkscape:version="0.48.4 r9939"
   sodipodi:docname="z-bellows.svg">
  <defs
     id="defs3082" />
  <sodipodi:namedview
     id="base"
     pagecolor="#ffffff"
     bordercolor="#666666"
     borderopacity="1.0"
     inkscape:pageopacity="0.0"
     inkscape:pageshadow="2"
     inkscape:zoom="0.7"
     inkscape:cx="201.79558"
     inkscape:cy="459.48447"
     inkscape:document-units="mm"
     inkscape:current-layer="layer1"
     showgrid="true"
     units="mm"
     inkscape:window-width="1920"
     inkscape:window-height="1057"
     inkscape:window-x="-8"
     inkscape:window-y="-8"
     inkscape:window-maximized="1"
     inkscape:snap-bbox="true"
     inkscape:snap-bbox-midpoints="false">
    <inkscape:grid
       type="xygrid"
       id="grid3088"
       empspacing="5"
       visible="true"
       enabled="true"
       snapvisiblegridlinesonly="true"
       units="mm"
       spacingx="1mm"
       spacingy="1mm" />
  </sodipodi:namedview>
  <metadata
     id="metadata3085">
    <rdf:RDF>
      <cc:Work
         rdf:about="">
        <dc:format>image/svg+xml</dc:format>
        <dc:type
           rdf:resource="http://purl.org/dc/dcmitype/StillImage" />
        <dc:title />
      </cc:Work>
    </rdf:RDF>
  </metadata>
  <g
     inkscape:label="Layer 1"
     inkscape:groupmode="layer"
     id="layer1"
     transform="translate(0,-62.362185)"
     style="display:inline">
    <path
       id="rect4754"
       style="fill:#00ffff;fill-opacity:1;fill-rule:evenodd;stroke:none;display:inline"
       d="m 95.669289,95.669273 552.755861,0 0,921.259827 -552.755861,0 z"
       inkscape:connector-curvature="0" />
  </g>
  <g
     inkscape:groupmode="layer"
     id="layer2"
     inkscape:label="score"
     style="display:inline"
     transform="translate(0,-62.362183)">
    <path
       id="path3831"
       transform="translate(0,-2e-6)"
       style="fill:none;stroke:#000000;stroke-width:1.01980388;stroke-miterlimit:4;stroke-opacity:1;stroke-dasharray:3.05941164, 3.05941164;stroke-dashoffset:0;display:inline"
       d="m 95.669292,981.49604 552.755918,0 m 0,-35.43307 -552.755918,0 m 0,-35.43307 552.755918,0 m 0,-35.43307 -552.755918,0 m 0,-35.43308 552.755918,0 m 0,-35.43307 -552.755918,0 m 0,-35.43307 552.755918,0 m 0,-35.43307 -552.755918,0 m 0,-35.43307 552.755918,0 m 0,-35.43307 -552.755918,0 m 0,-35.43307 552.755918,0 m 0,-35.43307 -552.755918,0 m 0,-35.43307 552.755918,0 m 0,-35.43307 -552.755918,0 m 0,-35.43307 552.755918,0 m 0,-35.43307 -552.755918,0 m 0,-35.43308 552.755918,0 m 0,-35.43307 -552.755918,0 m 0,-35.43307 552.755918,0 m 0,-35.43307 -552.755918,0 m 0,-35.43307 552.755918,0 m 0,-35.43307 -552.755918,0 m 0,-35.43307 552.755918,0 m 0,-35.43307 -552.755918,0 m 0,-35.43307 552.755918,0 m -152.36222,885.82676 0,-921.259828 m -248.03149,0 0,921.259828 m 248.03149,-921.259828 -35.43307,35.433068 35.43307,35.43307 -35.43307,35.43307 35.43307,35.43307 -35.43307,35.43307 35.43307,35.43307 -35.43307,35.43307 35.43307,35.43307 -35.43307,35.43307 35.43307,35.43308 -35.43307,35.43307 35.43307,35.43307 -35.43307,35.43307 35.43307,35.43307 -35.43307,35.43307 35.43307,35.43307 -35.43307,35.43307 35.43307,35.43307 -35.43307,35.43307 35.43307,35.43307 -35.43307,35.43307 35.43307,35.43308 -35.43307,35.43307 35.43307,35.43307 -35.43307,35.43307 35.43307,35.43306 m -248.03149,0 35.43307,-35.43306 L 248.0315,946.06297 283.46457,910.6299 248.0315,875.19683 283.46457,839.76375 248.0315,804.33068 283.46457,768.89761 248.0315,733.46454 283.46457,698.03147 248.0315,662.5984 283.46457,627.16533 248.0315,591.73226 283.46457,556.29919 248.0315,520.86612 283.46457,485.43305 248.0315,449.99998 283.46457,414.5669 248.0315,379.13383 283.46457,343.70076 248.0315,308.26769 283.46457,272.83462 248.0315,237.40155 283.46457,201.96848 248.0315,166.53541 283.46457,131.10234 248.0315,95.669272"
       inkscape:connector-curvature="0" />
  </g>
  <g
     inkscape:groupmode="layer"
     id="layer3"
     inkscape:label="Size"
     style="display:inline">
    <path
       id="path5298"
       style="font-size:144px;font-style:normal;font-weight:normal;line-height:125%;letter-spacing:0px;word-spacing:0px;fill:#000000;fill-opacity:1;stroke:none;font-family:Sans"
       d="m 33.532959,459.98492 -3.515625,-19.61718 0,-16.875 14.414062,0 0,16.875 -3.164062,19.61718 z m 23.273437,0 -3.445312,-19.61718 0,-16.875 14.414062,0 0,16.875 -3.375,19.61718 z m -67.007812,66.58594 0,-24.67969 -44.71875,0 0,-11.60156 47.0390625,-66.79687 10.3359375,0 0,66.79687 13.921875,0 0,11.60156 -13.921875,0 0,24.67969 z m 0,-36.28125 0,-46.47656 -32.273438,46.47656 z m -54.210938,24.11719 0,12.16406 -68.132816,0 c -0.0937,-3.04687 0.39844,-5.97655 1.47657,-8.78906 1.73436,-4.64061 4.5117,-9.21092 8.33203,-13.71094 3.82029,-4.49997 9.33982,-9.70309 16.55859,-15.60937 11.203085,-9.18746 18.773389,-16.46479 22.710939,-21.83203 3.937443,-5.36713 5.906191,-10.44134 5.90625,-15.22266 -5.9e-5,-5.01555 -1.793026,-9.24601 -5.378906,-12.69141 -3.585988,-3.44522 -8.261765,-5.16787 -14.027344,-5.16797 -6.093779,1e-4 -10.968779,1.82822 -14.624999,5.48438 -3.65627,3.65633 -5.50783,8.71883 -5.55469,15.1875 l -13.00781,-1.33594 c 0.89062,-9.70304 4.24218,-17.09756 10.05469,-22.18359 5.81247,-5.08584 13.61715,-7.6288 23.414059,-7.62891 9.890575,1.1e-4 17.718692,2.74229 23.484375,8.22656 5.765556,5.48447 8.648365,12.28134 8.648437,20.39063 -7.2e-5,4.12507 -0.843821,8.17975 -2.53125,12.16406 -1.687568,3.98444 -4.488346,8.17974 -8.402343,12.58594 -3.91412,4.4063 -10.41802,10.45316 -19.511719,18.14062 -7.593789,6.37503 -12.468779,10.69924 -14.624999,12.97266 -2.15628,2.27345 -3.93752,4.55861 -5.34375,6.85547 z m -99.351566,12.16406 0,-14.41406 14.41407,0 0,14.41406 z m -87.25781,-50.83594 c 0,-12.18743 1.2539,-21.99602 3.76172,-29.42578 2.5078,-7.4296 6.23436,-13.16006 11.17969,-17.1914 4.94528,-4.03115 11.16793,-6.04677 18.66797,-6.04688 5.5312,1.1e-4 10.38276,1.11339 14.55468,3.33985 4.17182,2.22666 7.61713,5.43759 10.33594,9.63281 2.71868,4.1954 4.85149,9.30477 6.39844,15.32812 1.5468,6.02351 2.32024,14.1446 2.32031,24.36328 -7e-5,12.09379 -1.24226,21.8555 -3.72656,29.28516 -2.48444,7.4297 -6.19928,13.17188 -11.14453,17.22656 -4.94537,4.05469 -11.19146,6.08203 -18.73828,6.08203 -9.93753,0 -17.74221,-3.56249 -23.41407,-10.6875 -6.79688,-8.5781 -10.19531,-22.54684 -10.19531,-41.90625 z m 13.00781,0 c -10e-6,16.92191 1.98045,28.18362 5.94141,33.78516 3.96091,5.60157 8.84762,8.40235 14.66016,8.40234 5.81245,10e-6 10.69916,-2.81248 14.66015,-8.4375 3.96088,-5.62497 5.94135,-16.87496 5.94141,-33.75 -6e-5,-16.96868 -1.98053,-28.2421 -5.94141,-33.82031 -3.96099,-5.57803 -8.89457,-8.36709 -14.80078,-8.36719 -5.81253,1e-4 -10.45315,2.46103 -13.92187,7.38282 -4.3594,6.28133 -6.53908,17.88288 -6.53907,34.80468 z m -45.49218,50.83594 -12.65625,0 0,-80.64844 c -3.04692,2.90633 -7.04301,5.81258 -11.98828,8.71875 -4.94534,2.90632 -9.38674,5.08601 -13.32422,6.53907 l 0,-12.23438 c 7.0781,-3.32804 13.26559,-7.35929 18.5625,-12.09375 5.29683,-4.73428 9.04683,-9.32802 11.25,-13.78125 l 8.15625,0 z m -61.66407,-60.60937 -68.0625,0 0,-11.8125 68.0625,0 z m 0,31.28906 -68.0625,0 0,-11.8125 68.0625,0 z m -168.60937,29.32031 0,-103.07812 13.64062,0 0,42.32812 53.57813,0 0,-42.32812 13.64062,0 0,103.07812 -13.64062,0 0,-48.58594 -53.57813,0 0,48.58594 z"
       inkscape:connector-curvature="0" />
  </g>
</svg>
