<?xml version="1.0" encoding="UTF-8" standalone="no"?>
<!-- Created with Inkscape (http://www.inkscape.org/) -->

<svg
   xmlns:dc="http://purl.org/dc/elements/1.1/"
   xmlns:cc="http://creativecommons.org/ns#"
   xmlns:rdf="http://www.w3.org/1999/02/22-rdf-syntax-ns#"
   xmlns:svg="http://www.w3.org/2000/svg"
   xmlns="http://www.w3.org/2000/svg"
   xmlns:sodipodi="http://sodipodi.sourceforge.net/DTD/sodipodi-0.dtd"
   xmlns:inkscape="http://www.inkscape.org/namespaces/inkscape"
   width="765"
   height="990"
   id="svg3080"
   version="1.1"
   inkscape:version="0.48.4 r9939"
   sodipodi:docname="z-carriage.svg">
  <defs
     id="defs3082" />
  <sodipodi:namedview
     id="base"
     pagecolor="#ffffff"
     bordercolor="#666666"
     borderopacity="1.0"
     inkscape:pageopacity="0.0"
     inkscape:pageshadow="2"
     inkscape:zoom="0.98994949"
     inkscape:cx="200.29376"
     inkscape:cy="345.57316"
     inkscape:document-units="mm"
     inkscape:current-layer="layer1"
     showgrid="true"
     units="mm"
     inkscape:window-width="1920"
     inkscape:window-height="1057"
     inkscape:window-x="-8"
     inkscape:window-y="-8"
     inkscape:window-maximized="1"
     inkscape:snap-bbox="true"
     inkscape:snap-bbox-midpoints="false">
    <inkscape:grid
       type="xygrid"
       id="grid3088"
       empspacing="5"
       visible="true"
       enabled="true"
       snapvisiblegridlinesonly="true"
       units="mm"
       spacingx="1mm"
       spacingy="1mm" />
  </sodipodi:namedview>
  <metadata
     id="metadata3085">
    <rdf:RDF>
      <cc:Work
         rdf:about="">
        <dc:format>image/svg+xml</dc:format>
        <dc:type
           rdf:resource="http://purl.org/dc/dcmitype/StillImage" />
        <dc:title />
      </cc:Work>
    </rdf:RDF>
  </metadata>
  <g
     inkscape:label="Layer 1"
     inkscape:groupmode="layer"
     id="layer1"
     transform="translate(0,-62.362185)"
     style="display:inline">
    <path
       id="path3955"
       style="fill:#00ffff;fill-opacity:1;fill-rule:evenodd;stroke:#000000;stroke-opacity:1"
       d="m 159.4375,386.23718 283.46875,0 0,102.78125 -283.46875,0 0,-102.78125 z m 88.59375,145.28123 106.3125,0 0,35.4375 -106.3125,0 0,-35.4375 z m -88.59375,77.96877 283.46875,0 0,102.75 -283.46875,0 0,-102.75 z m -17.71875,-248.0625 0,425.1875 -35.40625,0 0,92.125 35.40625,0 0,106.3125 70.875,0 0,-187.78125 177.15625,0 0,187.78125 70.875,0 0,-106.3125 35.4375,0 0,-92.125 -35.4375,0 0,-49.59375 180.71875,0 7.09375,0 14.15625,0 3.5625,0 3.53125,0 0,-375.59375 -3.53125,0 -3.5625,0 -14.15625,0 -7.09375,0 -499.625,0 z" />
  </g>
  <g
     inkscape:groupmode="layer"
     id="layer2"
     inkscape:label="score"
     style="display:inline"
     transform="translate(0,-62.362183)">
    <path
       id="path3832"
       style="fill:none;stroke:#000000;stroke-width:0.99921262;stroke-linecap:butt;stroke-linejoin:miter;stroke-miterlimit:4;stroke-opacity:1;stroke-dasharray:2.9976378, 2.9976378;stroke-dashoffset:0;display:inline"
       d="m 552.75591,737.00785 0,-375.59055 m -162.99213,552.7559 70.86614,0 m -318.89764,0 70.86615,0 m 248.03149,-177.16535 0,-375.59055 m -318.89764,400.3937 318.89764,0 m -318.89764,-24.80315 318.89764,0 m -248.03149,212.59842 -70.86615,0 m 318.89764,0 -70.86614,0 M 648.4252,361.4173 l 0,375.59055 m -187.79528,49.6063 0,92.12598 m -318.89764,-92.12598 0,92.12598" />
  </g>
  <g
     inkscape:groupmode="layer"
     id="layer3"
     inkscape:label="Size"
     style="display:inline">
    <path
       id="path4097"
       style="font-size:126.85964203px;font-style:normal;font-weight:normal;line-height:125%;letter-spacing:0px;word-spacing:0px;fill:#000000;fill-opacity:1;stroke:none;font-family:Sans"
       d="m 57.219806,544.17372 -3.097159,-17.28215 0,-14.86636 12.698353,0 0,14.86636 -2.787443,17.28215 z m 20.503194,0 -3.035216,-17.28215 0,-14.86636 12.698353,0 0,14.86636 -2.973273,17.28215 z m -94.711133,34.68819 11.1497735,-1.48663 c 1.2801414,6.31822 3.4584746,10.87104 6.53500599,13.65847 3.07648541,2.78745 6.82404431,4.18117 11.24268751,4.18116 5.244484,10e-6 9.673417,-1.817 13.286814,-5.451 3.613301,-3.63398 5.419975,-8.13518 5.420028,-13.50361 -5.3e-5,-5.12062 -1.672517,-9.34307 -5.017398,-12.66738 -3.344976,-3.32424 -7.598404,-4.98639 -12.760296,-4.98643 -2.106101,4e-5 -4.72836,0.413 -7.8667842,1.23887 l 1.2388637,-9.78703 c 0.7432889,0.0826 1.3420724,0.12394 1.7963524,0.12389 4.7489421,5e-5 9.0230181,-1.23881 12.8222391,-3.71659 3.799135,-2.47767 5.698724,-6.2975 5.698773,-11.45949 -4.9e-5,-4.08818 -1.383445,-7.4744 -4.150193,-10.15868 -2.766838,-2.68413 -6.338891,-4.02623 -10.716171,-4.02631 -4.3360528,8e-5 -7.9494017,1.36283 -10.84005755,4.08825 -2.89070225,2.72558 -4.74899595,6.81382 -5.57488665,12.26475 l -11.1497728,-1.98218 c 1.362742,-7.4744 4.459898,-13.26609 9.2914773,-17.37506 4.8315478,-4.10881 10.8400307,-6.16326 18.0254667,-6.16335 4.955416,9e-5 9.518559,1.06345 13.689444,3.19007 4.170789,2.1268 7.36086,5.02781 9.570222,8.70302 2.209248,3.67537 3.3139,7.57779 3.31396,11.70726 -6e-5,3.92313 -1.053093,7.49519 -3.159102,10.71617 -2.106124,3.2211 -5.223927,5.78142 -9.353421,7.68096 5.368356,1.23891 9.539193,3.80955 12.512523,7.71192 2.97321,3.90246 4.459845,8.78564 4.459909,14.64957 -6.4e-5,7.92874 -2.890743,14.64957 -8.672045,20.1625 -5.781415,5.51295 -13.090703,8.26942 -21.927888,8.26942 -7.970049,0 -14.5876393,-2.37449 -19.8527904,-7.12347 -5.2651796,-4.74896 -8.2694216,-10.90198 -9.0127336,-18.45907 z m -69.004711,2.97328 10.716171,-0.99109 c 0.908481,5.03805 2.642889,8.69269 5.203227,10.96394 2.560293,2.27125 5.843279,3.40688 9.848967,3.40687 3.427486,10e-6 6.431728,-0.7846 9.012733,-2.35384 2.580922,-1.56921 4.697312,-3.66495 6.349176,-6.28723 1.651769,-2.62225 3.035165,-6.16332 4.150194,-10.62326 1.114924,-4.45987 1.672412,-9.00237 1.672466,-13.6275 -5.4e-5,-0.4955 -0.0207,-1.23883 -0.06194,-2.22996 -2.230006,3.55146 -5.275543,6.4318 -9.136619,8.64107 -3.861166,2.20934 -8.042327,3.31399 -12.543495,3.31396 -7.515798,3e-5 -13.875292,-2.72546 -19.078501,-8.1765 -5.203235,-5.45095 -7.804847,-12.63636 -7.804841,-21.55623 -6e-6,-9.20881 2.715168,-16.62134 8.145529,-22.2376 5.430333,-5.61609 12.233753,-8.42418 20.410279,-8.42427 5.90521,9e-5 11.304586,1.58996 16.198143,4.76962 4.893456,3.17984 8.610044,7.71201 11.149773,13.59653 2.539607,5.88467 3.809441,14.40185 3.809506,25.55157 -6.5e-5,11.60406 -1.259575,20.8439 -3.778535,27.71957 -2.519081,6.87571 -6.26664,12.1099 -11.242688,15.7026 -4.976147,3.5927 -10.809124,5.38905 -17.498949,5.38906 -7.102844,-1e-5 -12.90485,-1.97186 -17.406035,-5.91558 -4.501215,-3.94371 -7.206065,-9.48762 -8.114557,-16.63174 z m 45.652127,-40.07724 c -5.3e-5,-6.40073 -1.703489,-11.48007 -5.110313,-15.23803 -3.406919,-3.7578 -7.505489,-5.63675 -12.295722,-5.63683 -4.955485,8e-5 -9.270856,2.02356 -12.946126,6.07043 -3.675314,4.04702 -5.51296,9.29155 -5.512943,15.73357 -1.7e-5,5.78142 1.744714,10.47878 5.234199,14.09208 3.489441,3.61339 7.794488,5.42007 12.915154,5.42003 5.161892,4e-5 9.404996,-1.80664 12.729324,-5.42003 3.324234,-3.6133 4.986374,-8.62037 4.986427,-15.02122 z m -76.252043,61.07598 0,-12.69836 12.69835,0 0,12.69836 z m -19.01657,-68.57111 -11.08783,0.86721 c -0.99114,-4.37725 -2.39518,-7.557 -4.21213,-9.53926 -3.01462,-3.17966 -6.7312,-4.76954 -11.14978,-4.76963 -3.55144,9e-5 -6.66924,0.99117 -9.35342,2.97327 -3.51013,2.5604 -6.27693,6.29763 -8.30038,11.21172 -2.0235,4.91422 -3.07653,11.91379 -3.15911,20.99874 2.68419,-4.0882 5.96718,-7.12341 9.84897,-9.10565 3.88174,-1.98212 7.94934,-2.97321 12.20281,-2.97326 7.43313,5e-5 13.76166,2.73587 18.98558,8.20746 5.22382,5.47169 7.83575,12.54354 7.83582,21.21555 -7e-5,5.6988 -1.22861,10.99492 -3.68562,15.88842 -2.45714,4.89352 -5.83304,8.64108 -10.12771,11.24268 -4.29478,2.60162 -9.16764,3.90242 -14.61859,3.90243 -9.29151,-1e-5 -16.86922,-3.4172 -22.73315,-10.2516 -5.86397,-6.83438 -8.79594,-18.09771 -8.79594,-33.79001 0,-17.55051 3.24169,-30.31079 9.72508,-38.28089 5.65746,-6.93755 13.27647,-10.40636 22.85704,-10.40645 7.14407,9e-5 12.99769,2.00292 17.56089,6.00849 4.56309,4.00574 7.29891,9.53932 8.20747,16.60077 z m -45.52824,39.14809 c -1e-5,3.84051 0.81557,7.5158 2.44676,11.02589 1.63115,3.51013 3.91272,6.18401 6.84472,8.02164 2.93195,1.83766 6.00846,2.75648 9.22954,2.75647 4.70764,10e-6 8.75459,-1.89958 12.14086,-5.69877 3.38618,-3.79916 5.07929,-8.96109 5.07934,-15.48579 -5e-5,-6.27688 -1.67252,-11.22201 -5.0174,-14.8354 -3.34497,-3.6133 -7.55711,-5.41998 -12.63641,-5.42003 -5.03807,5e-5 -9.31215,1.80673 -12.82224,5.42003 -3.51013,3.61339 -5.26518,8.35204 -5.26517,14.21596 z m -24.65337,-23.97202 -59.96101,0 0,-10.40644 59.96101,0 z m 0,27.56472 -59.96101,0 0,-10.40646 59.96101,0 z m -148.53976,25.83032 0,-90.80872 12.01698,0 0,37.2898 47.20071,0 0,-37.2898 12.01697,0 0,90.80872 -12.01697,0 0,-42.80274 -47.20071,0 0,42.80274 z" />
  </g>
</svg>
