<?xml version="1.0" encoding="UTF-8" standalone="no"?>
<!-- Created with Inkscape (http://www.inkscape.org/) -->

<svg
   xmlns:dc="http://purl.org/dc/elements/1.1/"
   xmlns:cc="http://creativecommons.org/ns#"
   xmlns:rdf="http://www.w3.org/1999/02/22-rdf-syntax-ns#"
   xmlns:svg="http://www.w3.org/2000/svg"
   xmlns="http://www.w3.org/2000/svg"
   xmlns:sodipodi="http://sodipodi.sourceforge.net/DTD/sodipodi-0.dtd"
   xmlns:inkscape="http://www.inkscape.org/namespaces/inkscape"
   width="990"
   height="765"
   id="svg3080"
   version="1.1"
   inkscape:version="0.48.4 r9939"
   sodipodi:docname="z-slide-top.svg">
  <defs
     id="defs3082" />
  <sodipodi:namedview
     id="base"
     pagecolor="#ffffff"
     bordercolor="#666666"
     borderopacity="1.0"
     inkscape:pageopacity="0.0"
     inkscape:pageshadow="2"
     inkscape:zoom="0.98994949"
     inkscape:cx="543.01649"
     inkscape:cy="355.06292"
     inkscape:document-units="mm"
     inkscape:current-layer="layer1"
     showgrid="true"
     units="mm"
     inkscape:window-width="1920"
     inkscape:window-height="1057"
     inkscape:window-x="-8"
     inkscape:window-y="-8"
     inkscape:window-maximized="1"
     inkscape:snap-bbox="true"
     inkscape:snap-bbox-midpoints="false">
    <inkscape:grid
       type="xygrid"
       id="grid3088"
       empspacing="5"
       visible="true"
       enabled="true"
       snapvisiblegridlinesonly="true"
       units="mm"
       spacingx="1mm"
       spacingy="1mm" />
  </sodipodi:namedview>
  <metadata
     id="metadata3085">
    <rdf:RDF>
      <cc:Work
         rdf:about="">
        <dc:format>image/svg+xml</dc:format>
        <dc:type
           rdf:resource="http://purl.org/dc/dcmitype/StillImage" />
        <dc:title />
      </cc:Work>
    </rdf:RDF>
  </metadata>
  <g
     inkscape:label="Layer 1"
     inkscape:groupmode="layer"
     id="layer1"
     transform="translate(0,-287.36218)"
     style="display:inline">
    <path
       id="path4305"
       style="fill:#00ffff;stroke:#000000;stroke-opacity:1;stroke-width:1.77165354;stroke-miterlimit:4;stroke-dasharray:none"
       d="m 159.4375,400.39343 0,49.625 0,3.53125 -70.84375,0 0,375.59375 53.15625,0 7.0625,0 10.65625,0 28.34375,0 21.25,0 38.96875,0 0,194.87497 120.46875,0 0,-70.87497 35.4375,0 0,-60.21875 77.96875,0 0,60.21875 35.4375,0 0,70.87497 120.46875,0 0,-194.87497 191.34375,0 31.875,0 24.8125,0 17.71875,0 17.71875,0 0,-329.53125 0,-46.0625 0,-3.53125 0,-35.4375 -0.0312,0 0,-14.1875 -761.8125,0 z m 566.93824,49.60653 0.002,-49.60628 m -194.88168,0 -0.002,49.60628 m -177.16335,-49.60628 -0.002,49.60628 m 152.34772,467.71654 28.375,0 0,31.88878 -28.375,0 0,-31.88878 z m -155.90625,0 28.375,0 0,31.88878 -28.375,0 0,-31.88878 z m 77.96875,-77.95497 28.34375,0 0,28.34375 -28.34375,0 0,-28.34375 z m -180.70965,-10.62773 106.29922,0 m 177.16535,0 106.29921,0" />
  </g>
  <g
     inkscape:groupmode="layer"
     id="layer2"
     inkscape:label="score"
     style="display:inline"
     transform="translate(0,-287.36218)">
    <path
       id="path4239"
       style="display:inline;fill:none;stroke:#000000;stroke-opacity:1;stroke-width:0.99921262;stroke-miterlimit:4;stroke-dasharray:3.99685049,3.99685049;stroke-dashoffset:0"
       d="m 354.3285,829.13382 0,-379.13385 m 177.16535,0 0,379.13385 m -244.48819,0 0,194.88188 m 31.88977,0 0,-194.88188 m 248.03149,0 0,194.88188 m 31.88977,0 0,-194.88188 m -244.48819,0 177.16535,0 m 194.88189,0 0,-379.13385 m -566.92914,0 0,379.13385 m 0.002,-375.59054 761.81102,0" />
  </g>
  <g
     inkscape:groupmode="layer"
     id="layer3"
     inkscape:label="Size"
     style="display:inline"
     transform="translate(0,-225)">
    <path
       id="path3777"
       style="font-size:144px;font-style:normal;font-weight:normal;line-height:125%;letter-spacing:0px;word-spacing:0px;fill:#000000;fill-opacity:1;stroke:none;font-family:Sans"
       d="m 739.02589,229.66996 -3.51562,-19.61719 0,-16.875 14.41406,0 0,16.875 -3.16406,19.61719 z m 23.27344,0 -3.44531,-19.61719 0,-16.875 14.41406,0 0,16.875 -3.375,19.61719 z m -107.57812,39.58593 13.28906,-1.125 c 0.98435,6.46877 3.26951,11.33205 6.85547,14.58985 3.58591,3.25782 7.91012,4.88672 12.97265,4.88672 6.09371,0 11.24995,-2.29687 15.46875,-6.89063 4.2187,-4.59373 6.32807,-10.68747 6.32813,-18.28125 -6e-5,-7.21871 -2.0274,-12.91402 -6.08203,-17.08594 -4.05474,-4.17182 -9.36333,-6.25775 -15.92578,-6.25781 -4.07816,6e-5 -7.75785,0.92584 -11.03907,2.77734 -3.28127,1.85162 -5.85939,4.25396 -7.73437,7.20704 l -11.88281,-1.54688 9.98437,-52.94531 51.25781,0 0,12.09375 -41.13281,0 -5.55469,27.70312 c 6.18748,-4.31243 12.67966,-6.46868 19.47657,-6.46875 8.99995,7e-5 16.59369,3.11726 22.78125,9.35157 6.18743,6.23442 9.28117,14.25004 9.28125,24.04687 -8e-5,9.32815 -2.71882,17.39064 -8.15625,24.1875 -6.60944,8.34375 -15.63287,12.51562 -27.07032,12.51563 -9.37503,-1e-5 -17.02736,-2.625 -22.95703,-7.875 -5.92969,-5.24999 -9.31641,-12.21092 -10.16015,-20.88282 z m -13.64063,14.83594 0,12.16406 -68.13281,0 c -0.0938,-3.04687 0.39843,-5.97655 1.47656,-8.78906 1.73437,-4.64061 4.51171,-9.21092 8.33203,-13.71094 3.8203,-4.49997 9.33982,-9.70309 16.5586,-15.60937 11.20308,-9.18746 18.77338,-16.46479 22.71093,-21.83203 3.93745,-5.36713 5.90619,-10.44134 5.90625,-15.22266 -6e-5,-5.01554 -1.79302,-9.24601 -5.3789,-12.69141 -3.58599,-3.44522 -8.26177,-5.16787 -14.02735,-5.16796 -6.09378,9e-5 -10.96877,1.82821 -14.625,5.48437 -3.65627,3.65633 -5.50783,8.71883 -5.55468,15.1875 l -13.00782,-1.33594 c 0.89062,-9.70304 4.24218,-17.09756 10.05469,-22.18359 5.81248,-5.08584 13.61716,-7.6288 23.41406,-7.62891 9.89058,1.1e-4 17.7187,2.74229 23.48438,8.22657 5.76555,5.48446 8.64836,12.28133 8.64844,20.39062 -8e-5,4.12507 -0.84382,8.17975 -2.53125,12.16406 -1.68757,3.98444 -4.48835,8.17974 -8.40235,12.58594 -3.91412,4.4063 -10.41802,10.45316 -19.51172,18.14063 -7.59378,6.37502 -12.46878,10.69924 -14.625,12.97265 -2.15627,2.27346 -3.93752,4.55861 -5.34375,6.85547 z m -99.35156,12.16406 0,-14.41406 14.41406,0 0,14.41406 z m -85.35938,-23.83593 12.16407,-1.125 c 1.03123,5.71876 2.99997,9.8672 5.90625,12.44531 2.90622,2.57813 6.63278,3.86719 11.17968,3.86719 3.89059,0 7.30074,-0.89062 10.23047,-2.67188 2.92964,-1.78124 5.33198,-4.16014 7.20703,-7.13672 1.87495,-2.97654 3.44526,-6.99607 4.71094,-12.05859 1.26557,-5.06247 1.89838,-10.21871 1.89844,-15.46875 -6e-5,-0.56246 -0.0235,-1.40621 -0.0703,-2.53125 -2.53131,4.03129 -5.98834,7.30082 -10.3711,9.80859 -4.38286,2.50785 -9.12894,3.76175 -14.23828,3.76172 -8.53128,3e-5 -15.75002,-3.09371 -21.65625,-9.28125 -5.90626,-6.18745 -8.85938,-14.34369 -8.85937,-24.46875 -1e-5,-10.45305 3.08202,-18.8671 9.24609,-25.24219 6.16404,-6.3749 13.88669,-9.56239 23.16797,-9.5625 6.70308,1.1e-4 12.83198,1.80479 18.38672,5.41407 5.55462,3.60946 9.77337,8.75399 12.65625,15.43359 2.88274,6.67976 4.32414,16.34772 4.32422,29.00391 -8e-5,13.17191 -1.42976,23.66018 -4.28907,31.46484 -2.85944,7.8047 -7.11334,13.7461 -12.76171,17.82422 -5.64849,4.07812 -12.26958,6.11718 -19.86329,6.11719 -8.06252,-1e-5 -14.64846,-2.23829 -19.75781,-6.71485 -5.10939,-4.47655 -8.17969,-10.76951 -9.21094,-18.8789 z m 51.82032,-45.49219 c -6e-5,-7.26555 -1.93365,-13.03117 -5.80078,-17.29688 -3.86724,-4.26553 -8.51958,-6.39834 -13.95704,-6.39843 -5.62503,9e-5 -10.52346,2.29696 -14.69531,6.89062 -4.17189,4.59383 -6.25783,10.54695 -6.25781,17.85938 -2e-5,6.56256 1.98045,11.89458 5.94141,15.99609 3.9609,4.10161 8.84762,6.15239 14.66015,6.15234 5.85933,5e-5 10.67573,-2.05073 14.44922,-6.15234 3.77338,-4.10151 5.6601,-9.7851 5.66016,-17.05078 z m -67.71094,8.71875 -68.0625,0 0,-11.8125 68.0625,0 z m 0,31.28906 -68.0625,0 0,-11.8125 68.0625,0 z m -182.8125,29.32031 -27.35156,-103.07812 13.99218,0 15.67969,67.57031 c 1.68747,7.07815 3.14059,14.1094 4.35938,21.09375 2.62496,-11.0156 4.17183,-17.36716 4.64062,-19.05469 l 19.61719,-69.60937 16.45312,0 14.76563,52.17187 c 3.70303,12.93754 6.3749,25.10159 8.01562,36.49219 1.3124,-6.5156 3.02334,-13.99216 5.13282,-22.42969 l 16.17187,-66.23437 13.71094,0 -28.26563,103.07812 -13.14843,0 -21.72657,-78.53906 c -1.82819,-6.56241 -2.90631,-10.59366 -3.23437,-12.09375 -1.07819,4.73446 -2.086,8.76571 -3.02344,12.09375 l -21.86719,78.53906 z" />
  </g>
</svg>
